<svg width="325" height="406" viewBox="0 0 325 406" fill="none" xmlns="http://www.w3.org/2000/svg">
<g clip-path="url(#clip0_10688_55174)">
<g clip-path="url(#clip1_10688_55174)">
<path d="M135.156 183.797C138.631 183.493 132.588 185.843 135.607 185.341C135.197 188.318 130.48 183.716 128.989 186.898C130.538 187.545 129.563 189.611 127.869 188.288C126.685 187.967 124.505 191.971 124.877 193.824C121.379 196.545 121.773 201.021 119.896 204.332C120.767 207.944 126.446 210.91 125.822 215.182C126.468 216.935 129.504 220.541 130.217 217.652C131.026 212.851 131.73 219.637 130.175 219.979C129.926 221.771 130.747 222.76 132.181 223.856C132.509 224.267 134.127 221.902 134.897 220.384C135.589 217.206 136.21 220.144 137.763 220.456C138.312 219.575 142.321 217.282 140.688 219.034C142.903 221.761 141.105 223.295 139.059 225.277C139.02 227.596 141.103 226.444 140.345 228.335C141.243 229.646 137.629 229.686 135.824 230.043C134.126 233.822 134.349 241.063 140.588 238.271C138.844 239.729 134.812 242.306 133.76 245.849C135.577 248.732 135.819 252.879 139.1 254.776C140.332 257.216 144.584 253.895 143.22 256.301C140.425 260.408 136.35 254.613 135.966 251.591C130.283 251.094 132.809 257.321 133.603 258.728C134.912 259.9 133.577 258.776 134.839 259.637C136.099 260.499 135.101 259.814 135.101 259.814C135.101 259.814 137.416 261.632 137.919 262.684C138.423 263.736 136.478 262.939 136.578 263.704C136.678 264.469 137.182 264.309 138.188 265.998C139.194 267.688 140.2 270.46 140.2 270.46L142.614 270.843L143.017 273.52C143.017 273.52 142.145 274.923 141.407 274.795C140.669 274.668 141.072 273.457 140.066 273.01C139.06 272.564 138.289 273.265 137.383 273.01C136.478 272.755 137.081 272.022 136.444 271.99C135.807 271.958 135.706 272.532 134.834 272.883C133.962 273.233 133.761 271.863 132.957 273.393C132.152 274.923 131.286 278.32 131.615 279.003C131.747 279.277 135.907 281.489 136.041 281.68C136.525 282.37 132.868 286.075 131.615 287.927C131.011 288.819 131.686 289.757 132.554 289.839C132.889 289.871 134.532 287.799 135.103 288.054C135.673 288.309 135.232 290.33 134.834 290.859C134.581 291.197 132.286 291.146 130.81 291.752C129.335 292.357 128.932 293.282 128.932 293.282C128.932 293.282 131.627 297.747 133.761 297.489C135.605 297.266 136.478 297.138 136.31 297.489C135.351 299.495 132.727 302.584 131.481 306.031C131.112 307.051 132.084 309.346 133.225 311.768C134.365 314.19 134.581 315.142 136.041 315.72C136.444 315.88 138.188 314.86 138.59 314.955C140.031 315.297 139.586 318.404 142.846 318.487C144.622 318.532 143.361 326.844 143.471 328.445C146.412 327.032 148.201 322.937 151.694 321.821C152.741 320.005 153.883 321.823 151.878 322.274C148.664 324.672 146.598 328.713 144.331 332.019C141.332 332.132 139.388 336.401 137.571 336.968C137.426 339.214 135.849 338.822 136.301 340.876C137.499 343.424 135.5 345.017 132.766 344.227C129.58 345.781 125.865 345.512 123.064 343.592C120.452 343.934 117.537 342.881 114.74 343.401C111.685 343.943 105.252 343.131 104.386 345.681C102.101 347.022 105.943 349.393 103.166 351.146C101.338 354.621 98.2825 351.419 95.8043 351.781C95.7806 353.131 96.1465 354.536 95.3463 355.692C94.5461 356.848 94.3588 351.508 95.2554 355.368C96.1525 359.228 94.2038 362.098 91.709 364.473C88.741 364.92 90.6144 369.413 86.8118 368.953C84.7717 368.658 85.6671 369.801 84.7065 370.208C82.3139 369.659 82.4006 373.012 81.7311 375.458C78.4495 375.329 80.08 378.3 77.6449 379.493C76.3248 381.922 72.9942 382.272 71.7866 384.465C69.6276 382.84 67.4949 385.055 64.993 385.91C64.1002 387.135 63.5728 389.707 64.8676 390.629C69.0049 392.26 67.8447 385.98 71.1349 387.642C75.1797 387.857 75.9998 391.25 77.6449 393.774C78.2466 393.333 79.3245 391.511 80.7786 391.487C83.4693 389.635 78.6136 388.546 80.8873 387.682C82.3828 386.284 80.8948 385.427 82.3494 383.782C82.6029 383.766 83.0054 386.272 82.9177 386.609C83.9666 384.954 85.0214 384.446 86.4275 383.464C89.0769 383.63 89.0613 381.767 89.5364 380.025C89.981 377.749 91.9054 379.952 92.5781 379.398C96.2913 380.328 98.9191 377.158 102.648 378.461C103.871 381.036 106.396 378.437 103.851 377.856C107.047 376.699 106.907 381.805 110.244 380.279C112.815 379.247 113.635 384.069 115.785 383.496C117.995 384.506 119.66 383.361 119.554 380.843C121.377 379.768 121.03 378.031 122.529 378.818C124.622 376.564 122.137 376.88 121.977 374.648C124.959 374.412 121.685 371.748 124.125 370.121C126.016 369.067 123.058 363.567 125.161 366.761C126.491 370.67 129.021 365.091 131.42 365.101C135.57 365.668 139.242 361.846 143.212 364.497C146.231 366.486 151.925 368.421 151.159 372.265C151.615 371.933 151.571 371.225 152.095 370.907C150.737 369.355 151.246 366.092 154.569 367.397C158.344 367.236 161.007 369.36 164.354 368.921C165.784 367.544 165.363 366.729 165.082 365.553C163.006 365.674 162.913 364.424 161.747 364.973C160.415 364.528 163.066 363.675 164.396 363.854C165.056 366.849 167.426 362.195 169.911 363.973C170.173 363.763 170.417 362.466 172.544 362.901C175.244 364.71 176.038 362.617 178.486 361.574C182.57 361.777 181.993 358.362 179.28 356.928C175.396 354.897 180.486 356.452 181.519 358.135C183.24 358.644 185.842 362.636 186.934 360.216C185.255 358.613 186.294 358.198 188.221 358.802C185.923 360.408 189.144 362.576 189.224 359.255C191.649 357.061 189.286 361.885 190.034 361.272C192.571 362.45 190.569 356.768 192.057 359.421C191.838 359.551 195.027 359.28 192.885 360.74C191.315 361.509 197.458 364.937 196.653 362.146C197.69 361.333 203.381 360.814 206.23 360.224C212.194 357.641 218.001 361.729 223.62 362.789C225.763 358.915 230.541 358.875 234.543 357.539C236.494 354.357 239.622 355.045 242.791 355.776C241.695 352.02 245.501 348.921 249.133 348.683C252.239 348.042 255.974 345.551 254.273 341.765C252.177 338.982 256.253 339.196 255.66 336.388C254.763 336.005 253.663 336.442 252.727 336.539C247.731 336.106 243.124 339.473 238.345 337.659C240.08 338.134 244.242 336.839 240.309 335.109C238.399 334.107 236.344 334.444 236.256 335.379C235.63 335.425 235.539 337.544 233.573 336.523C230.334 337.135 233.24 333.818 235.303 334.6C237.933 333.127 231.916 332.146 230.431 332.607C229.782 332.911 226.479 335.151 227.849 333.671C228.788 330.91 232.351 332.018 234.025 330.709C236.517 331.198 239.495 330.973 241.253 328.525C243.784 326.66 240.416 327.429 239.95 327.643C237.021 325.787 240.963 327.86 241.913 325.927C243.774 323.256 241.433 320.789 238.872 323.044C237.877 323.519 236.323 323.639 236.272 322.337C239.759 323.086 240.222 319.471 243.375 319.407C245.003 322.213 249.135 320.392 250.755 318.025C252.52 315.233 250.185 317.93 248.95 316.595C250.022 315.431 252.9 313.202 249.125 313.807C245.948 314.21 246.961 312.529 249.342 313.37C252.681 314.425 248.781 310.305 251.089 312.306C252.248 316.422 255.046 311.492 256.028 309.549C259.475 309.188 260.472 305.364 260.298 302.29C260.977 298.298 263.878 294.756 264 290.844C263.472 285.57 263.1 279.259 257.173 276.611C253.97 272.75 248.827 272.713 244.421 271.146C241.647 270.431 244.179 271.511 243.426 271.75C240.115 271.295 237.608 271.246 233.957 271.376C230.63 270.261 228.957 273.6 228.509 276.555C226.915 277.938 227.335 280.804 225.551 278.104C221.679 279.712 221.302 272.437 217.127 274.824C217.593 273.095 220.466 270.743 222.183 268.597C225.414 266.755 227.389 263.968 225.952 260.304C224.225 255.274 222.856 250.011 217.703 248.097C216.034 245.234 212.94 245.104 210.877 242.266C210.182 238.782 207.234 240.318 204.709 240.313C202.816 242.219 201.345 239.858 199.871 240.027C196.727 241.549 197.902 239.122 200.489 238.978C203.587 241.701 208.404 236.673 210.784 239.868C212.639 242.459 215.32 243.726 218.33 242.616C221.375 242.414 219.431 246.909 220.67 244.935C220.777 240.942 216.485 237.88 214.679 234.387C211.947 231.025 208.625 223.648 214.821 222.084C213.753 220.329 208.709 220.78 209.748 217.978C206.394 216.797 205.88 214.156 204.893 211.234C203.128 209.061 202.975 206.041 199.712 205.452C196.674 202.161 191.978 202.359 188.447 200.043C185.77 197.916 187.042 201.97 184.954 200.591C186.08 199.097 184.546 197.878 185.572 196.683C181.268 194.749 181.09 189.498 180.483 185.619C179.001 182.529 177.376 179.999 176.471 176.771C177.092 174.181 174.32 172.133 175.335 169.448C174.084 167.447 174.442 165.372 174.533 162.998C173.666 160.388 173.924 158.078 171.75 156.231C169.378 155.725 170.209 156.28 169.41 154.499C168.766 154.998 167.238 154.575 166.752 152.577C165.001 151.062 163.076 149.104 161.89 147.093C160.703 145.082 161.449 146.948 160.707 148.076C159.965 149.204 159.385 149.32 159.092 149.878C158.805 150.423 158.537 150.766 158.143 151.14C157.823 151.444 157.264 151.796 156.91 152.132C156.577 152.449 156.527 153.128 156.246 153.394C155.833 153.787 155.503 154.217 155.013 154.566C154.524 154.915 154.407 155.156 154.254 155.738C154.147 156.146 154.27 156.697 154.349 157C154.467 157.448 154.512 157.939 154.729 158.352C154.998 158.863 155.734 159.398 156.057 159.704C156.282 159.918 156.416 160.784 156.72 161.147C156.967 161.44 156.817 162.234 156.91 162.589C157.052 163.127 156.91 163.595 156.91 164.122C156.91 164.802 156.183 165.053 155.677 165.294C155.203 165.519 154.966 166.165 154.729 166.466C154.372 166.917 154.043 166.837 153.496 167.097C153.052 167.307 152.695 168.018 152.167 168.269C152.111 168.295 152.041 168.269 151.978 168.269C151.409 168.269 150.87 168.961 150.555 169.26C150.107 169.686 149.561 169.925 148.943 170.072C148.583 170.157 148.035 170.726 147.71 170.973C147.271 171.307 146.709 171.865 146.287 171.965C145.854 172.068 145.827 172.632 145.718 173.047C145.586 173.548 145.476 173.867 145.244 174.309C145.001 174.769 144.732 175.011 144.485 175.481C144.162 176.094 143.672 176.614 143.157 177.103C142.653 177.583 142.236 177.811 141.64 178.095C140.963 178.416 140.793 178.747 140.122 178.906C139.72 179.002 139.204 180.109 138.889 180.349C138.53 180.622 138.153 180.681 137.656 180.799C137.038 180.946 136.901 181.43 136.138 181.43C135.871 181.43 135.267 183.345 135.048 183.501C134.829 183.657 137.041 183.725 134.964 184.044M169.382 153.182C167.906 154.477 166.692 151.492 169.301 152.981L169.382 153.182ZM235.813 270.652C237.995 271.463 233.441 270.862 235.591 270.64L235.813 270.652ZM250.499 316.369C249.747 315.812 249.873 317.403 250.499 316.369V316.369ZM243.516 320.504C240.418 322.037 241.304 319.241 243.865 320.128C244.212 320.424 243.745 320.508 243.516 320.504ZM48.6962 393.301C47.3836 393.912 51.1679 393.864 48.6962 393.301V393.301ZM48.4885 394.86C46.7169 395.937 49.8467 396.109 48.4885 394.86V394.86ZM47.3734 393.686C46.6528 394.748 49.2494 394.657 47.3734 393.686V393.686ZM92.2401 344.394C91.0217 346.021 93.0376 346.638 92.2401 344.394V344.394ZM130.087 220.592C128.701 222.643 133.724 226.383 130.318 223.976C129.985 223.158 128.624 220.737 130.087 220.592ZM132.39 201.036C132.509 201.019 132.658 201.17 132.841 201.6C131.976 204.322 131.874 201.107 132.39 201.036ZM137.629 209.169C137.691 209.171 137.798 209.225 137.972 209.344C139.944 210.439 137.154 217.062 138.106 212.537C139.162 211.703 137.203 209.154 137.629 209.169Z" fill="#00998E"/>
<path d="M188.117 365.256C185.037 365.806 185.774 370.456 181.758 369.029C180.341 366.969 175.729 365.523 175.259 365.612C176.416 363.184 179.181 364.073 179.93 363.004C182.004 359.956 184.663 363.389 187.307 363.238C187.381 363.927 188.93 364.634 188.117 365.256Z" fill="#00998E"/>
<g opacity="0.5">
<path d="M135.048 183.501C134.829 183.657 137.041 183.725 134.965 184.044C132.888 184.362 130.97 184.817 128.778 184.532C126.586 184.246 124.497 183.762 122.93 183.864C122.259 184.924 120.517 182.746 121.309 185.508C122.101 188.321 120.212 189.13 117.598 188.669C115.658 190.33 114.401 189.315 114.523 188.86C113.476 190.56 114.991 191.467 111.974 192.664C109.853 194.728 107.562 192.906 108.431 190.48C107.549 192.545 107.372 194.578 105.214 192.267C103.743 191.483 105.199 187.637 103.074 190.369C100.816 190.837 99.8868 187.483 99.3137 187.51C97.238 189.43 99.8852 191.025 100.726 192.625C99.3664 193.357 101.544 196.443 99.8739 197.398C96.6084 197.354 95.2743 194.501 93.2471 192.776C91.215 191.953 89.0312 190.232 87.5475 189.416C84.2508 190.372 83.5765 192.654 85.333 195.175C86.2952 196.566 87.1337 198.969 86.4615 199.543C82.9291 198.792 85.2437 195.215 82.843 193.768C80.4827 191.303 76.0811 186.294 79.2578 182.95C82.6606 181.739 80.1038 188.753 83.5448 187.184C81.9524 184.533 80.6565 181.371 82.6504 178.296C84.1265 175.142 88.1492 173.044 87.5142 168.828C89.5258 167.066 89.4574 163.798 92.8042 163.395C94.445 161.5 92.1676 159.213 91.9937 158.67C92.6223 155.309 87.7838 155.636 87.1552 153.269C83.2552 152.001 88.8256 149.508 85.8593 147.176C84.8024 143.832 86.6736 138.079 90.7732 141.235C92.0556 141.26 97.8854 142.431 95.687 141.434C91.9238 141.316 89.1248 137.131 87.4307 135.755C87.5658 137.434 91.1262 140.177 87.2386 139.106C85.0053 137.429 87.8311 133.486 87.4141 133.102C85.721 136.411 85.819 128.895 85.5251 133.253C86.2064 134.671 86.3873 138.788 85.0822 138.94C85.488 139.771 84.7125 144.126 82.801 144.984C81.0095 144.777 81.5353 138.231 80.5446 140.767C82.2968 144.798 77.9765 141.151 77.8291 140.25C77.2818 142.45 76.453 143.994 77.5777 146.191C74.605 145.698 73.0158 143.107 73.7257 140.306C73.6955 137.434 76.4282 134.268 78.6729 132.363C81.6047 131.41 81.2533 127.998 84.6313 127.121C85.4078 125.632 81.5256 128.331 80.9961 128.511C80.3675 132 75.5672 132.282 74.6615 135.795C74.0378 137.577 71.8184 138.767 71.1183 137.613C70.9224 141.796 72.8598 144.627 74.6362 148.328C72.2194 150.003 69.2859 153.523 70.3999 156.557C70.9725 157.768 69.4371 159.969 69.1794 161.887C68.6692 163.781 66.7028 164.379 68.8705 165.572C70.4209 169.29 63.906 171.424 61.2072 169.916C60.2735 166.704 63.1612 165.037 63.948 162.593C63.5358 159.163 64.5583 155.426 65.5775 152.705C66.5984 149.945 70.5527 147.847 70.7421 145.501C69.2628 147.232 67.2684 150.579 65.7282 148.082C63.4351 146 67.7495 142.336 67.2996 141.624C65.9628 143.677 63.4179 143.909 65.0431 141.069C67.2808 139.238 68.61 134.632 66.163 138.146C65.0846 139.43 63.9604 143.061 64.2994 139.432C65.9192 137.661 66.3234 133.998 68.8118 134.627C66.8508 133.648 69.9828 130.85 69.0459 130.02C67.792 131.924 65.606 134.101 67.3077 130.473C68.9404 128.612 67.4659 128.291 67.1909 126.629C67.0962 122.89 69.7272 120.758 71.2938 117.756C72.3867 117.765 78.9581 118.17 74.3273 117.518C72.7565 117.815 71.9492 116.679 71.4525 115.826C69.7692 118.395 71.2878 113.057 73.3328 114.937C75.1141 114.282 77.7537 112.157 74.2687 113.793C71.3583 115.433 72.1833 111.894 73.5502 110.425C75.1991 109.141 74.7519 107.238 77.9706 107.097C79.8837 108.331 82.8204 105.254 79.4414 107.089C74.8251 107.064 77.8985 103.759 79.5501 101.768C80.3826 99.9316 76.5391 103.873 76.4665 104.659C75.6539 106.644 73.3516 106.643 72.3135 109.035C69.6023 109.767 67.8216 115.802 64.3242 115.564C62.3352 114.104 61.924 114 59.018 113.412C55.9974 111.731 55.0448 107.185 59.6196 108.765C61.5823 106.872 63.5853 106.262 66.1124 107.511C70.4451 106.227 65.0733 107.755 63.7726 106.113C61.5516 105.932 59.7676 108.632 57.3465 107.28C55.414 106.573 49.7333 108.557 50.1347 105.016H50.1181C51.6857 103.09 55.1858 103.644 57.5553 102.944C59.1611 104.982 59.5524 102.917 59.9366 102.856C61.8277 103.254 63.046 101.769 60.146 101.045C60.1804 99.1116 65.9187 100.023 64.7671 98.0107C63.9184 100.159 60.5393 98.5238 63.5724 97.6533C62.0333 97.7398 56.1938 98.2585 59.5944 97.1371C60.3688 96.8662 59.5206 95.0395 60.5135 93.6266C60.8891 90.4009 64.0029 92.0735 65.436 93.404C67.1597 93.6837 70.9407 91.5208 67.0569 92.8003C64.0669 93.6343 65.7955 89.2455 63.0122 90.7512C60.0394 88.5527 66.2028 84.4688 68.0428 87.8284C69.9322 88.5954 72.8146 86.6539 69.2213 87.6378C68.4728 86.2465 66.2626 85.7823 64.6836 85.0323C65.7503 83.3129 66.3099 82.3625 66.1044 80.7434C68.7774 78.7015 69.759 81.9725 72.3049 82.1173C72.6165 81.7531 69.4059 80.4421 68.4857 79.3851C66.1566 79.9208 61.3078 78.9926 65.2019 76.5658C67.3723 76.7451 71.8055 74.1489 70.8428 72.9116C69.5717 75.2466 64.9936 76.879 66.6307 73.5158C65.3117 75.1271 60.7374 77.5739 61.3912 74.1273C61.3966 73.0337 62.0295 71.4219 60.0286 71.3472C59.3753 68.685 60.591 62.6551 63.0961 66.6055C64.294 65.8854 64.6314 68.3554 65.8783 68.1303C64.5502 66.6024 71.6656 67.9144 67.7086 66.4386C64.8214 66.8646 65.0205 65.8916 63.7225 65.0406C63.6961 62.6849 59.8683 62.5319 62.1183 60.1634C62.4869 58.3734 66.5037 60.8599 64.124 58.2178C60.3429 58.379 61.7604 53.8089 61.324 51.6727C63.8797 51.3837 65.3849 51.3286 65.3687 54.4291C66.156 56.6513 66.7119 55.8725 67.0569 55.1755C68.5589 54.628 66.5112 51.8566 65.8116 50.6085C65.9817 47.7073 68.7279 49.1043 68.7531 51.3554C71.8303 54.3014 70.6049 47.5827 73.6589 50.4102C74.6647 52.3733 79.161 52.7014 75.4892 50.9979C74.1535 49.892 70.8094 48.0293 74.0346 48.2338C74.8649 50.2355 77.5411 48.6639 78.8817 50.8393C80.495 51.647 81.7915 54.4745 80.4859 51.2519C78.773 49.9265 76.6559 49.0729 77.9544 47.3045C75.4041 46.2846 73.0072 44.0649 71.7119 42.6896C69.3806 40.8377 72.3335 39.1677 73.2747 41.9035C74.2983 41.3358 77.8167 42.1971 75.8481 39.7987C76.6322 39.1322 75.7335 39.0487 76.8006 38.0829C74.5151 37.5827 74.1465 35.0457 72.5891 33.4602C73.646 32.1162 75.6356 35.089 77.737 33.198C79.5425 33.6559 80.2443 31.4517 82.1741 33.1109C83.6804 33.146 84.4698 34.7382 84.0877 33.0476C84.7518 33.0326 78.1363 31.5048 79.4753 29.5288C78.3037 29.7132 79.1368 24.0449 80.9374 25.9781C84.3375 27.1376 80.1388 25.0061 80.6786 24.7392C80.3621 22.518 84.9165 25.0241 82.6843 22.9677C79.5549 22.5041 80.0699 19.6128 82.4754 18.0355C83.076 16.9821 82.5901 15.6499 83.0599 14.5883C84.93 15.4156 87.6761 15.3465 88.1492 17.6466C89.6366 17.0722 88.6061 14.5018 89.854 17.1696C93.7352 18.0963 90.5994 21.0206 89.3945 23.3572C91.3011 22.856 91.7984 19.9435 93.874 18.7025C92.5986 14.7588 101.474 18.6768 97.4506 21.292C95.8318 24.2998 97.9484 23.1594 98.4117 20.9825C99.4347 18.2997 103.202 19.381 103.258 19.2985C104.099 17.7949 105.293 19.2954 106.258 17.5193C108.402 19.6437 108.98 13.915 109.685 17.6146C113.188 18.1272 116.268 17.6326 118.944 14.9618C121.391 14.3869 121.604 15.7231 123.197 15.8117C124.978 15.5912 129.018 16.4783 125.797 14.0005C125.826 13.0342 126.019 12.7009 126.332 12.6741C127.128 12.6257 128.697 14.631 130.276 13.4051C132.113 14.2591 134.58 13.2691 136.209 14.1041C136.235 16.8167 132.435 18.854 133.284 21.7129C134.505 22.5505 137.361 21.5239 135.097 24.0325C133.948 28.0298 130.851 30.7198 126.649 31.9988C124.317 35.14 121.851 38.4501 118.401 40.5055C116.258 42.0452 114.157 43.3525 113.044 45.414C110.384 46.2145 109.276 48.1292 109.827 50.2433C109.594 52.2919 106.385 52.449 104.428 51.7845C105.586 53.8002 109.025 54.0345 111.005 52.8565C112.692 53.6194 110.28 54.6187 113.094 53.6271C114.369 53.5591 116.165 49.6287 115.476 52.8961C113.626 55.4279 111.744 58.5223 109.317 60.132C109.796 57.9026 108.315 57.0552 106.601 58.8772C104.731 60.983 101.376 59.5412 100.484 62.5783C97.9887 63.7811 97.4952 67.1448 100.158 64C102.2 61.2137 104.656 60.2979 107.328 61.1252C110.999 59.1461 108.717 62.1368 107.286 63.8254C107.044 65.4424 105.242 65.4352 104.445 66.6292C101.444 65.9261 105.729 67.4395 103.208 68.972C105.683 70.0944 107.292 67.0047 108.857 65.6366C106.255 63.4447 113.42 65.5402 114.941 64.0397C116.998 61.5079 119.877 61.2416 122.738 60.7275C126.496 55.5444 132.056 61.5919 136.986 60.8073C139.131 59.1332 141.356 59.2372 143.889 60.2433C147.388 60.0728 152.021 62.2306 155.037 60.3623C156.824 60.3566 159.096 61.444 160.836 59.8544C163.968 59.8461 165.79 61.0881 167.722 63.4762C168.714 64.5321 167.96 67.6934 169.745 69.0121C168.342 69.4433 170.644 70.8743 168.583 72.0302C166.711 75.346 160.412 80.5673 161.755 86.0971C162.38 89.5808 157.455 92.364 158.622 96.2078C157.757 99.5345 154.509 102.375 152.354 103.793C151.748 106.264 151.949 107.308 150.023 109.003C151.34 111.907 146.638 113.876 144.499 115.572C144.109 118.182 141.799 116.003 139.978 117.304C136.453 117.017 132.811 118.629 130.342 121.617C127.169 121.629 128.199 122.867 130.802 122.101C134 120.821 137.016 118.555 140.078 117.756C143.201 117.58 141.085 121.607 141.44 121.775C142.284 124.052 148.429 123.133 147.407 126.374C145.091 129.051 141.532 130.62 138.248 128.98C135.676 130.817 132.62 132.957 131.997 135.818C128.5 135.307 126.066 139.24 122.771 136.732C120.933 134.504 115.641 137.118 119.704 137.82C122.636 137.821 125.726 138.952 128.27 139.115C130.665 139.402 133.266 139.402 135.39 140.806C137.73 140.569 140.596 139.131 140.513 136.867C142.022 134.596 148.369 135.073 148.151 138.558C151.609 137.238 154.557 143.004 158.513 142.053C160.255 143.018 160.904 144.383 161.759 146.992C161.017 148.119 159.385 149.32 159.092 149.878C158.805 150.423 158.537 150.766 158.143 151.14C157.824 151.444 157.264 151.796 156.91 152.132C156.577 152.449 156.527 153.128 156.246 153.394C155.833 153.787 155.503 154.217 155.013 154.566C154.524 154.915 154.407 155.156 154.255 155.738C154.147 156.147 154.27 156.697 154.349 157C154.467 157.448 154.512 157.94 154.729 158.352C154.998 158.863 155.734 159.398 156.057 159.704C156.282 159.918 156.416 160.785 156.72 161.147C156.967 161.44 156.817 162.234 156.91 162.59C157.052 163.127 156.91 163.595 156.91 164.122C156.91 164.802 156.183 165.053 155.677 165.294C155.203 165.52 154.966 166.166 154.729 166.466C154.372 166.918 154.043 166.837 153.496 167.097C153.052 167.308 152.695 168.018 152.168 168.269C152.111 168.296 152.041 168.269 151.978 168.269C151.409 168.269 150.87 168.962 150.555 169.26C150.107 169.686 149.561 169.925 148.943 170.072C148.583 170.157 148.035 170.726 147.71 170.973C147.271 171.307 146.709 171.865 146.287 171.965C145.855 172.068 145.827 172.632 145.718 173.047C145.587 173.548 145.476 173.867 145.244 174.309C145.002 174.77 144.732 175.011 144.485 175.481C144.163 176.094 143.672 176.614 143.157 177.104C142.653 177.583 142.237 177.811 141.64 178.095C140.963 178.417 140.793 178.747 140.122 178.907C139.72 179.002 139.204 180.109 138.889 180.349C138.53 180.622 138.153 180.682 137.656 180.8C137.039 180.946 136.901 181.431 136.138 181.431C135.871 181.431 135.268 183.345 135.048 183.501Z" fill="#008077"/>
<path d="M133.801 11.9349C132.541 14.8077 132.676 10.234 133.801 11.9349V11.9349Z" fill="#008077"/>
<path d="M64.147 131.921C64.661 134.617 61.8857 137.532 60.8111 140.063C60.0453 138.883 54.9705 141.756 56.7932 138.384C58.2355 135.458 62.1602 133.186 64.147 131.921Z" fill="#008077"/>
<path d="M67.1856 128.356C65.6777 128.507 67.5381 130.835 67.1856 128.356V128.356Z" fill="#008077"/>
<path d="M65.8633 126.476C67.0225 127.665 64.9468 131.717 65.3057 127.9C65.6001 127.588 64.8801 125.578 65.8633 126.476Z" fill="#008077"/>
<path d="M67.1333 124.123C63.6235 123.026 66.8465 129.017 67.1333 124.123V124.123Z" fill="#008077"/>
<path d="M69.5103 119.739C65.2858 120.083 68.0842 123.147 69.5103 119.739V119.739Z" fill="#008077"/>
<path d="M64.5405 129.791C60.6255 130.267 65.1013 133.236 64.5405 129.791V129.791Z" fill="#008077"/>
<path d="M64.2504 128.687C63.3172 128.237 64.2364 130.21 64.2504 128.687V128.687Z" fill="#008077"/>
<path d="M62.8398 127.303C61.8539 128.558 62.0094 126.649 62.8398 127.303V127.303Z" fill="#008077"/>
<path d="M52.4478 132.998C51.668 135.494 50.031 138.22 48.9342 136.351C49.3502 134.382 51.5421 132.863 52.4478 132.998Z" fill="#008077"/>
<path d="M50.3822 137.564C48.278 139.524 49.6799 136.019 50.3822 137.564V137.564Z" fill="#008077"/>
<path d="M65.4617 118.156C64.7885 118.852 65.5365 121.71 63.738 120.364C63.272 119.529 61.7157 122.521 64.2358 121.091C64.5044 123.529 57.4374 125.767 59.9419 122.48C56.9369 124.457 53.4362 125.634 49.469 125.624C48.3211 128.482 44.3544 122.64 47.9379 122.926C49.0062 124.382 49.716 124.13 49.914 123.13C51.5252 124.26 57.7436 120.699 54.7875 121.257C53.1677 122.357 48.5401 122.59 51.6598 120.173C51.7529 117.612 56.7733 118.04 55.8052 115.932C52.8335 118.215 52.0203 115.185 49.35 114.499C45.9129 115.132 47.9891 112.584 48.2361 112.053C46.0991 110.999 50.0254 110.088 50.5905 111.13C49.2935 107.831 55.1976 108.331 55.7304 111.553C56.7399 113.727 57.9454 115.273 60.3364 115.063C61.7872 115.071 64.2213 117.217 65.4617 118.156Z" fill="#008077"/>
<path d="M71.248 113.437C70.7351 114.99 65.4887 119.079 67.4373 116.584C67.764 115.834 71.3481 112.41 71.2485 113.437H71.248Z" fill="#008077"/>
<path d="M46.6385 125.103C47.2246 127.713 47.3947 125.268 46.6385 125.103V125.103Z" fill="#008077"/>
<path d="M45.8962 123.27C43.4552 127.19 44.1279 121.475 45.8962 123.27V123.27Z" fill="#008077"/>
<path d="M52.1652 117.402C49.5056 118.501 48.5397 114.739 51.6378 116.738C51.8369 116.918 52.5774 117.023 52.1652 117.402Z" fill="#008077"/>
<path d="M49.0526 116.214C46.8472 117.452 48.5995 114.897 49.0526 116.214V116.214Z" fill="#008077"/>
<path d="M43.3777 117.747C42.2669 119.083 43.4767 116.437 43.3777 117.747V117.747Z" fill="#008077"/>
<path d="M44.9077 116.162C44.122 115.255 44.4508 118.179 44.9077 116.162V116.162Z" fill="#008077"/>
<path d="M36.8708 114.052C35.9027 115.113 34.5143 114.565 34.2032 116.226C31.4382 115.427 32.5904 119.311 30.0213 117.849C28.7453 115.824 31.0669 114.149 33.4611 114.218C34.906 114.299 36.2068 112.5 36.8708 114.052Z" fill="#008077"/>
<path d="M44.0607 107.408C43.395 110.693 40.023 112.214 37.6949 112.387C36.9211 112.616 39.4633 109.579 40.912 108.769C41.3232 107.979 44.34 106.267 44.0607 107.408Z" fill="#008077"/>
<path d="M60.8934 102.337C58.059 102.776 60.472 100.471 60.8934 102.337V102.337Z" fill="#008077"/>
<path d="M50.3754 100.157C48.4112 101.573 48.8863 98.6037 50.3754 100.157V100.157Z" fill="#008077"/>
<path d="M53.4868 95.9452C54.5033 99.3681 48.9399 98.1035 51.3331 96.178C52.3475 96.4175 52.0294 93.0955 53.4868 95.9452Z" fill="#008077"/>
<path d="M49.707 92.5789C49.6854 96.349 45.7128 95.0823 44.7963 92.618C42.4457 92.0606 47.7949 88.0973 48.8072 90.556C50.307 90.9444 49.4836 91.9823 49.707 92.5789Z" fill="#008077"/>
<path d="M43.1769 89.6731C41.2089 90.8439 38.3997 90.0955 41.8476 89.2708C42.2136 89.0699 43.2867 89.0611 43.1769 89.6731Z" fill="#008077"/>
<path d="M43.771 90.4781C42.1517 90.8805 42.8588 89.3861 43.771 90.4781V90.4781Z" fill="#008077"/>
<path d="M52.4696 65.448C53.0664 68.0885 52.2307 73.0873 51.7189 73.6044C53.5787 73.7445 52.3044 76.1821 53.6358 77.2304C55.4165 77.5822 54.6184 79.5463 54.9655 79.5432C57.4324 79.194 60.2679 82.585 62.7063 79.6869C63.7745 79.7719 65.03 79.7349 65.5655 80.7445C66.4572 83.8244 61.707 83.7348 61.9104 85.4619C61.3733 87.2819 59.0167 88.8999 57.9146 90.556C55.5893 92.8014 54.6771 90.2062 56.0725 88.3358C54.9666 85.5428 60.8787 84.5986 60.2324 83.8342C58.2052 85.0859 56.3626 83.9259 55.5898 82.4397C56.0424 84.3828 53.0142 88.3657 53.5093 84.1989C52.5686 82.5134 48.681 85.8004 47.8862 84.4724C50.8207 82.9528 43.6552 83.6673 46.5865 81.7227C45.8369 81.7325 43.5422 79.6766 43.3183 78.4723C43.9916 74.903 47.2285 78.9096 47.3297 78.224C45.726 76.6622 45.8412 75.2384 44.0088 75.9225C43.6428 74.6367 43.0423 73.2475 42.2108 74.7181C41.974 71.5522 40.9004 75.4073 40.845 76.8121C38.5089 75.753 36.359 75.0694 35.7562 72.6087C33.6429 71.613 36.3703 71.0494 36.514 70.982C34.7574 68.1895 38.3022 68.7077 38.6531 71.0608C41.029 73.0852 40.6195 71.4208 39.5077 69.4459C40.513 68.4929 41.7346 69.0925 39.7752 67.1459C37.9794 65.2013 40.2358 62.382 40.8073 66.0404C41.7739 67.8093 44.8316 68.5573 44.5658 68.7757C44.3365 72.0328 45.5 65.5547 46.3115 68.973C49.9107 71.5527 43.4254 66.3392 46.4003 64.9875C44.0169 63.6353 45.6146 61.6068 46.9579 60.0022C46.2384 58.2905 50.5231 60.9619 50.3896 62.6417C51.7689 62.8024 52.0687 64.561 52.4696 65.448Z" fill="#008077"/>
<path d="M61.0942 76.2887C59.6116 75.3728 61.8917 77.8037 61.0942 76.2887V76.2887Z" fill="#008077"/>
<path d="M60.7523 79.4386C59.7755 78.7612 60.1431 80.677 60.7523 79.4386V79.4386Z" fill="#008077"/>
<path d="M58.5763 78.276C53.8534 74.0114 56.4791 82.7591 58.5763 78.276V78.276Z" fill="#008077"/>
<path d="M57.5731 65.3295C55.0401 65.3589 56.8983 72.0214 57.5731 65.3295V65.3295Z" fill="#008077"/>
<path d="M56.8599 69.4063C55.1933 71.6702 56.0371 74.1361 56.3697 76.2233C53.4475 78.8051 53.8958 72.2065 55.1664 70.9949C56.4805 71.5924 56.1 67.9186 56.8599 69.4063Z" fill="#008077"/>
<path d="M46.5791 49.9353C44.7332 49.1652 47.9115 52.6592 46.5791 49.9353V49.9353Z" fill="#008077"/>
<path d="M44.8629 57.5172C43.3039 57.051 45.6352 58.7025 44.8629 57.5172V57.5172Z" fill="#008077"/>
<path d="M52.0318 25.4238C49.7694 26.7765 52.3245 28.9565 51.6755 29.2867C49.8087 30.8851 47.3273 33.4051 47.2848 34.8042C49.7527 37.0274 53.2372 30.0409 52.782 34.6301C51.6971 36.7575 49.7134 36.5551 47.9462 35.9426C46.8844 36.2073 45.3948 34.6666 46.4829 37.0408C48.3691 39.5757 43.1254 40.2588 42.3532 41.0649C45.3049 40.9583 46.4334 39.1296 46.646 42.5598C47.4602 46.2104 41.9781 43.9135 42.0921 44.68C45.6778 45.4975 43.0565 48.8818 41.5804 48.4471C41.1423 50.9243 38.8476 45.7597 39.6931 49.0714C37.0863 48.6408 36.8134 44.7897 37.3903 43.4133C35.0504 45.243 37.3898 48.9127 38.0592 50.2407C37.6535 51.4549 32.4646 49.3264 35.3254 51.9267C36.7666 53.2866 34.6544 53.9908 34.2637 54.1417C32.5793 53.879 31.8947 56.7256 30.5343 58.0726C29.324 57.4122 26.1258 54.5157 25.6091 52.8684C27.6837 53.1975 27.0702 55.445 28.3655 52.9616C28.9806 52.0498 31.3679 51.3055 31.2619 50.9974C28.76 49.3006 33.02 49.9858 34.0549 49.8024C33.2396 48.104 30.4003 47.2814 28.2391 47.2628C26.0746 45.9632 25.8954 44.4585 28.0905 43.9867C30.4439 43.0064 27.1294 43.2815 28.0529 42.5196C26.7075 41.4116 25.586 39.0173 26.9986 37.2417C26.9653 36.0307 30.7851 37.1021 28.0981 35.4743C28.1514 32.6335 30.6667 35.0736 31.1435 34.3617C33.0308 35.6907 29.8078 36.0647 32.9334 36.9738C33.3542 34.4461 37.4361 37.9757 37.4059 36.3176C35.4056 34.7913 33.091 30.8857 36.5955 30.1068C37.8381 28.2034 40.7801 28.6722 42.0857 27.7532C43.3326 24.3957 48.3632 23.0986 49.5208 20.5519C51.506 21.9288 51.6529 23.3685 52.0318 25.4238Z" fill="#008077"/>
<path d="M35.4814 34.8711C35.2742 37.5405 30.8522 30.9876 34.1301 33.8388C34.362 34.2236 35.0127 34.3246 35.4814 34.8711Z" fill="#008077"/>
<path d="M33.6765 35.447C32.4452 34.9793 33.8557 34.5275 33.6765 35.447V35.447Z" fill="#008077"/>
<path d="M26.3146 44.6666C22.223 45.1931 26.6821 41.3492 26.3146 44.6666V44.6666Z" fill="#008077"/>
<path d="M30.0068 50.0815C28.4451 51.3987 26.3355 50.7862 29.0408 49.3238C29.7673 48.4862 30.0105 49.4587 30.0068 50.0815Z" fill="#008077"/>
<path d="M23.678 55.8236C20.2602 55.0967 23.7264 58.3188 23.678 55.8236V55.8236Z" fill="#008077"/>
<path d="M25.3048 58.1524C22.5377 56.6302 23.1829 61.6083 25.3048 58.1524V58.1524Z" fill="#008077"/>
<path d="M21.7914 59.0378C20.545 58.1008 21.6639 60.9561 21.7914 59.0378V59.0378Z" fill="#008077"/>
<path d="M11.4143 59.6586C10.5963 59.058 11.2065 60.521 11.4143 59.6586V59.6586Z" fill="#008077"/>
<path d="M27.5033 62.826C27.3139 64.939 23.0706 61.2369 24.7033 63.5379C24.6737 65.3918 27.7067 63.711 25.8318 66.1588C23.2379 66.5931 21.0832 65.2028 21.6127 67.3163C21.5804 70.8011 18.689 63.1928 16.5616 65.8034C13.5808 64.6949 15.869 62.8466 16.5616 61.4939C18.1287 61.7221 19.2696 60.814 18.2256 62.4701C19.2788 63.0923 21.0498 58.1333 20.5138 61.4677C22.0971 64.9045 22.4544 58.1055 24.755 60.9525C22.654 63.3556 28.0404 60.8495 27.5033 62.826Z" fill="#008077"/>
<path d="M17.9878 66.0142C16.6806 65.6948 19.1314 67.7795 17.9878 66.0142V66.0142Z" fill="#008077"/>
<path d="M12.2461 68.1318C9.7593 68.1884 13.543 67.4271 12.2461 68.1318V68.1318Z" fill="#008077"/>
<path d="M13.4351 67.7372C12.2835 67.4457 13.2177 69.4155 13.4351 67.7372V67.7372Z" fill="#008077"/>
<path d="M20.0379 67.7244C17.0808 64.4616 20.0341 72.3141 20.0379 67.7244V67.7244Z" fill="#008077"/>
<path d="M23.4701 71.9396C22.9115 76.4216 14.6891 70.2624 20.1938 69.485C21.3912 70.521 22.8679 70.4638 23.4701 71.9396Z" fill="#008077"/>
<path d="M22.623 76.5241C20.7766 76.5715 16.6248 73.4427 20.1938 73.9975C22.0725 74.749 21.6861 75.3213 22.623 76.5241Z" fill="#008077"/>
<path d="M23.8414 78.629C22.6833 80.147 21.974 82.6387 19.8752 81.5662C20.6324 81.595 24.146 84.7975 21.4574 85.3188C17.9788 85.46 22.7866 85.7943 23.1353 87.01C23.1472 88.3694 18.3452 87.9856 18.1962 85.8262C17.2377 82.2029 17.7124 79.9863 18.5449 76.4068C17.503 73.2949 18.5567 75.4852 20.1873 76.2234C21.776 76.857 23.4017 77.9114 23.8414 78.629Z" fill="#008077"/>
<path d="M22.0437 88.5826C19.8475 86.8961 21.0981 92.2044 22.0437 88.5826V88.5826Z" fill="#008077"/>
<path d="M19.1543 90.2834C17.4764 90.8346 18.9455 88.8942 19.1543 90.2834V90.2834Z" fill="#008077"/>
<path d="M17.8177 90.4781C17.568 92.3145 19.1313 92.9914 17.8021 94.5089C16.2006 95.5835 12.9291 94.4621 15.5591 92.7344C14.8207 91.9679 17.6396 90.4658 17.2747 90.0887C17.4475 90.2324 17.7063 90.2628 17.8177 90.4781Z" fill="#008077"/>
<path d="M16.0639 95.5572C15.8561 96.8811 13.1864 96.2954 14.6383 94.9617C14.8127 95.3321 16.82 95.2414 16.0639 95.5572Z" fill="#008077"/>
<path d="M15.9235 97.7424C13.4292 98.4945 16.0812 96.0848 15.9235 97.7424V97.7424Z" fill="#008077"/>
<path d="M14.2438 99.5896C11.567 99.8626 14.4886 98.4589 14.2438 99.5896V99.5896Z" fill="#008077"/>
<path d="M12.6177 100.764C10.4661 100.141 11.734 104.671 12.6177 100.764V100.764Z" fill="#008077"/>
<path d="M20.2465 91.749C18.6611 91.4064 21.2749 92.9214 20.2465 91.749V91.749Z" fill="#008077"/>
<path d="M24.1238 74.05C22.2946 75.5794 24.0996 71.4311 24.1238 74.05V74.05Z" fill="#008077"/>
<path d="M23.6402 69.6952C21.154 68.1271 23.5111 71.3611 23.6402 69.6952V69.6952Z" fill="#008077"/>
<path d="M24.8067 69.2882C23.083 67.9948 24.6678 72.2821 24.8067 69.2882V69.2882Z" fill="#008077"/>
<path d="M23.7745 66.9614C20.4821 66.6832 23.6341 70.7954 23.7745 66.9614V66.9614Z" fill="#008077"/>
<path d="M25.6092 66.8301C21.7378 67.34 25.7454 70.439 25.6092 66.8301V66.8301Z" fill="#008077"/>
<path d="M23.0241 64.579C20.9695 66.1728 22.1206 64.4075 21.9317 63.6564C22.0883 64.3034 23.1829 63.88 23.0241 64.579Z" fill="#008077"/>
</g>
<g opacity="0.5">
<path d="M75.2593 322.227C73.7083 322.707 76.5578 323.131 75.2593 322.227V322.227Z" fill="#008077"/>
<path d="M74.5457 316.803C73.5765 316.196 74.4354 318.474 74.5457 316.803V316.803Z" fill="#008077"/>
<path d="M92.0398 256.137C93.3012 255.416 95.6648 258.985 94.1198 259.538C93.7985 257.432 89.779 257.971 92.0398 256.137Z" fill="#008077"/>
<path d="M98.8141 251.711C102.991 251.323 103.01 255.566 104.958 257.342C107.598 255.355 110.247 257.479 106.71 259.278C104.134 260.435 102.78 263.414 100.895 264.439C98.7162 264.594 98.1194 262.944 96.6228 261.601C94.862 259.078 94.1522 255.53 95.0557 252.837C96.5098 252.506 97.3122 251.966 98.8141 251.711Z" fill="#008077"/>
<path d="M143.245 328.898C143.466 328.446 143.621 327.961 143.621 327.961C143.621 327.961 144.474 322.023 143.956 319.418C143.721 318.238 142.748 319.258 141.407 318.143C140.066 317.027 140.031 315.298 138.59 314.956C138.188 314.86 136.444 315.88 136.041 315.721C134.581 315.142 134.365 314.191 133.225 311.768C132.084 309.346 131.112 307.051 131.481 306.031C132.727 302.585 135.351 299.495 136.31 297.489C136.478 297.139 135.605 297.266 133.761 297.489C131.627 297.747 128.932 293.282 128.932 293.282C128.932 293.282 129.335 292.357 130.81 291.752C132.286 291.146 134.581 291.197 134.834 290.859C135.232 290.33 135.673 288.31 135.103 288.055C134.532 287.8 132.889 289.871 132.554 289.839C131.686 289.757 131.011 288.82 131.615 287.927C132.868 286.075 136.525 282.37 136.041 281.68C135.907 281.489 131.747 279.277 131.615 279.003C131.286 278.32 132.152 274.923 132.957 273.393C133.761 271.863 133.962 273.234 134.834 272.883C135.706 272.532 135.807 271.959 136.444 271.991C137.081 272.023 136.478 272.756 137.383 273.011C138.289 273.265 139.06 272.564 140.066 273.011C141.072 273.457 140.669 274.668 141.407 274.795C142.145 274.923 143.017 273.52 143.017 273.52L142.614 270.843L140.2 270.461C140.2 270.461 139.194 267.688 138.188 265.999C137.182 264.309 136.678 264.469 136.578 263.704C136.478 262.939 138.423 263.736 137.919 262.684C137.416 261.632 135.101 259.814 135.101 259.814C135.101 259.814 136.099 260.499 134.839 259.638C133.577 258.776 132.994 258.867 131.42 257.421C127.386 251.871 122.595 258.787 117.716 257.509C116.376 256.627 111.628 254.178 114.306 257.239C112.306 258.219 108.339 260.253 105.414 260.376C104.078 261.6 102.121 265.314 101.035 264.943C101.036 267.432 99.2549 269.847 96.8488 271.488C93.6248 273.11 90.8011 275.202 89.5364 278.581C90.4648 279.363 91.0922 277.784 92.4613 278.128C94.2232 275.992 95.5734 279.837 96.7235 278.628C96.2386 275.084 101.23 273.529 104.696 273.76C108.33 274.743 104.634 278.236 107.144 279.844C107.634 282.079 109.812 281.126 109.952 281.353C107.273 282.656 104.982 287.284 108.757 289.026C111.526 287.772 111.552 289.47 108.916 289.883C107.54 290.686 107.908 295.282 106.417 297.413C104.826 301.337 100.634 302.464 97.7594 304.657C96.7003 306.992 92.2202 304.866 91.3414 306.762C90.1446 306.719 89.5364 309.296 87.5141 309.629C87.9516 312.162 85.1209 309.619 84.5559 311.353C83.8315 311.193 80.2329 309.257 80.9459 312.028C79.9504 313.903 76.4997 314.159 75.1963 315.53C73.7745 318.56 78.1804 315.577 79.8594 317.675C81.0972 320.275 79.7518 321.173 77.8037 322.147C75.5225 322.436 78.2643 323.211 78.6061 324.537C78.5851 321.704 82.379 324.609 84.4891 323.457C88.8578 322.784 82.8994 324.86 82.0152 324.434C81.2554 324.755 78.5953 324.454 81.5557 325.562C81.5481 327.186 83.6792 328.338 85.3749 327.659C86.5395 325.313 89.4498 326.871 91.0153 325.523C90.8458 321.717 95.4238 322.673 98.311 322.17C97.0754 319.652 98.9482 322.276 99.7484 320.662C99.6483 321.534 102.72 323.673 100.133 322.727C99.3168 324.256 102.829 325.583 104.587 324.641C105.628 326.724 109.253 323.686 107.612 326.007C105.162 327.966 103.512 325.391 102.022 327.603C101.749 329.515 103.209 330.966 105.139 330.296C106.494 329.032 108.854 329.692 110.479 329.589C108.269 327.46 113.515 326.573 114.273 327.564C116.721 328.781 115.898 333.551 118.81 333.068C121.758 337.189 127.777 337.691 132.056 335.872C131.621 333.004 135.087 331.92 136.92 329.859C138.223 331.056 141.153 329.954 143.245 328.898Z" fill="#008077"/>
</g>
<g opacity="0.1">
<path d="M103.596 203.483C102.746 204.95 103.585 206.361 104.218 207.083C103.088 208.651 103.248 210.139 101.58 211.148C101.328 212.123 99.2394 213.08 99.1062 213.736C98.2385 213.497 97.4595 213.189 96.3373 213.899C97.0024 212.539 97.0786 210.302 97.9369 209.014C100.396 207.663 99.8916 203.642 103.18 203.368C103.34 203.174 103.534 203.259 103.596 203.483Z" fill="#D0E2E2"/>
</g>
<circle cx="171.5" cy="264.5" r="6" fill="#006660" stroke="#D0E2E2" stroke-width="3"/>
</g>
<line x1="199.485" y1="40.2112" x2="168.485" y2="258.211" stroke="#D0E2E2" stroke-width="3" stroke-dasharray="2 2"/>
<line x1="320.538" y1="211.4" x2="177.538" y2="266.4" stroke="#D0E2E2" stroke-width="3" stroke-dasharray="2 2"/>
<g filter="url(#filter0_d_10688_55174)">
<rect x="198" y="36" width="126" height="176" rx="4" fill="#F2F7F7"/>
<rect x="199.5" y="37.5" width="123" height="173" rx="2.5" stroke="#D0E2E2" stroke-width="3"/>
</g>
<path d="M198 40C198 37.7909 199.791 36 202 36H320C322.209 36 324 37.7909 324 40V53.3793H198V40Z" fill="#D0E2E2"/>
<path d="M217 124V117.111L226.778 110.222V124H217ZM236.556 124V103.333L246.333 96.4444V124H236.556ZM256.111 124V96.4444L265.889 103.419V124H256.111ZM275.667 124V103.419L285.445 96.5306V124H275.667ZM295.222 124V89.5556L305 82.6667V124H295.222ZM217 106.175V96.4444L251.222 72.3333L270.778 86.1111L305 62V71.7306L270.778 95.8417L251.222 82.0639L217 106.175Z" fill="#006660"/>
<rect x="217" y="176" width="88" height="8" rx="4" fill="#D0E2E2"/>
<rect x="217" y="190" width="47" height="8" rx="4" fill="#D0E2E2"/>
<circle cx="209" cy="45" r="5" fill="#008077"/>
<circle cx="222" cy="45" r="5" fill="#008077"/>
<circle cx="235" cy="45" r="5" fill="#008077"/>
<rect x="217" y="154" width="78" height="5" rx="1" fill="#006660"/>
<rect x="217" y="143" width="47" height="5" rx="1" fill="#006660"/>
<circle cx="262" cy="145" r="6" fill="#00403C" stroke="#F2F7F7" stroke-width="2"/>
<rect x="-1.41304" width="11.4261" height="11.4261" transform="matrix(0.706519 -0.707694 0.706519 0.707694 283.585 155.671)" fill="#008077" stroke="#F2F7F7" stroke-width="2"/>
</g>
<defs>
<filter id="filter0_d_10688_55174" x="196" y="36" width="130" height="180" filterUnits="userSpaceOnUse" color-interpolation-filters="sRGB">
<feFlood flood-opacity="0" result="BackgroundImageFix"/>
<feColorMatrix in="SourceAlpha" type="matrix" values="0 0 0 0 0 0 0 0 0 0 0 0 0 0 0 0 0 0 127 0" result="hardAlpha"/>
<feOffset dy="2"/>
<feGaussianBlur stdDeviation="1"/>
<feComposite in2="hardAlpha" operator="out"/>
<feColorMatrix type="matrix" values="0 0 0 0 0 0 0 0 0 0 0 0 0 0 0 0 0 0 0.25 0"/>
<feBlend mode="normal" in2="BackgroundImageFix" result="effect1_dropShadow_10688_55174"/>
<feBlend mode="normal" in="SourceGraphic" in2="effect1_dropShadow_10688_55174" result="shape"/>
</filter>
<clipPath id="clip0_10688_55174">
<rect width="322" height="404" fill="white" transform="translate(1.5 1)"/>
</clipPath>
<clipPath id="clip1_10688_55174">
<rect width="322" height="394" fill="white" transform="translate(1.5 11)"/>
</clipPath>
</defs>
</svg>
