<?xml version="1.0" encoding="UTF-8"?>
<svg viewBox="0 0 300 300" xmlns="http://www.w3.org/2000/svg">
<defs>
<style>.cls-1 {
        fill: #f3f2f1;
      }

      .cls-2 {
        fill: #0b0c0c;
      }

      .cls-3 {
        fill: #5694ca;
      }</style>
</defs>
<polygon class="cls-1" points="150 96.02 277.05 150 277.05 179.68 150 233.66 22.95 179.68 22.95 150"/>
<path class="cls-2" d="m150 96.02 127.05 53.98v29.68l-127.05 53.98-127.05-53.98v-29.68l127.05-53.98zm0 0.19-126.6 53.79 126.6 53.79 126.6-53.79-126.6-53.79zm0.18 137.18 126.7-53.83v-29.3l-126.7 53.83v29.3zm-127.05-53.83 126.7 53.83v-29.3l-126.7-53.83v29.3z"/>
<path class="cls-2" d="M142.45,171.44c-.39.07-.79.1-1.18.1-1.21,0-2.35-.31-2.87-.84-.19-.19-.28-.39-.27-.63v-.4s0,.35,0,.35v-1.16s0,.36,0,.36v-.36s0,.22,0,.22v-1.55s0,.2,0,.2v-3.54s0-.01,0-.02c0-.08,0-.16.03-.22.01-.04.05-.08.07-.12.02-.04.04-.07.07-.11.28-.4.91-.72,1.79-.88,1.57-.28,3.39.04,4.05.72.24.24.29.47.27.66,0,0,0,0,0,0v5.87c0,.6-.77,1.12-1.97,1.33ZM144.04,163.68c-.63-.64-2.4-.95-3.93-.68-1.52.27-2.24,1.01-1.61,1.65.64.65,2.39.96,3.92.69,1.52-.27,2.26-1.02,1.62-1.67Z"/>
<path class="cls-2" d="m156.11 165.02 4.53-1.92 1.86 1.52h0.45l2.34-1.92 4.37 1.86v5.95s-0.94 0.21-0.94 0.21v1.68s-1.73 0.73-1.73 0.73v0.23c0.12 0.01 0.23 0.02 0.35 0.04 0.9 0.16 1.53 0.5 1.79 0.91 0 0.01 0.02 0.03 0.03 0.04 0.03 0.05 0.07 0.1 0.09 0.15 0.02 0.07 0.03 0.15 0.03 0.24v0.03 5.87c0 0.22-0.08 0.42-0.27 0.61-0.31 0.31-0.86 0.56-1.56 0.7v0.84s0 0.05 0 0.05v0.08s0 0.03 0 0.06v0.18s0 0.03 0 0.06v0.18s0 0.03 0 0.02v0.88s0 0.09 0 0.09v0.13s0 0.03 0 0.06v0.04c0 0.22-0.08 0.42-0.27 0.61-0.66 0.68-2.47 1-4.02 0.73-0.78-0.14-1.37-0.39-1.69-0.72h-0.01v1.47s0 0.12 0 0.12v1.14l-0.32 0.02c-4.33 0.28-8.87 1.08-14.32 2.5h-0.06s-0.05-0.01-0.05-0.01c-3.8-2.15-8.23-4.31-13.19-6.41-4.96-2.11-10.04-3.99-15.11-5.61l-0.28-0.1v-5.94l0.24-0.17c3.33-2.3 5.19-4.21 5.85-6.02l0.04-0.12 4.53 0.91v-2.02s0-0.03 0-0.04 0-0.01 0-0.02c0-0.08 0-0.16 0.03-0.22 0.01-0.04 0.05-0.07 0.07-0.11s0.04-0.07 0.07-0.11c0.28-0.4 0.91-0.72 1.79-0.88 1.57-0.28 3.39 0.04 4.05 0.72 0.25 0.25 0.29 0.49 0.27 0.68v2.79c0.74-0.15 1.61-0.26 2.64-0.32h0.11s0.03 0.1 0.03 0.1c0.08 0.25 0.11 0.48 0.1 0.7v0.03 3.99l1.28-0.65v0.02s0 0 0 0v0.24c-0.05 0.96 0.69 1.5 1.9 2.06 0.79-0.73 1-2.33 1-2.35l0.02-0.19 4.26 1.81v-2.01s0-0.03 0-0.05 0-0.01 0-0.02c0-0.08 0-0.16 0.03-0.22 0.09-0.28 0.35-0.52 0.73-0.72s0-0.03 0-0.05v-0.05-0.05-0.05-0.05-0.05-0.05-0.05-0.05-0.05-0.05-0.05-0.05-0.05-0.05-0.05-0.05-0.05-0.05-0.05-0.05-0.05-0.05-0.05-0.05-0.05-0.05-0.05-0.05-0.05-0.05-0.05-0.05-0.05-0.05-0.05-0.05-0.05-0.05-0.05-0.05-0.05-0.05-0.05-0.05-0.05-0.05-0.05-0.05-0.05-0.05-0.05-0.05-0.05-0.05-0.05-0.05-0.05-0.05-0.05-0.05-0.05-0.05-0.05-0.05-0.05-0.05-0.05-0.05-0.05-0.05-0.05-0.05-0.05-0.05-0.05-0.05-0.05-0.05-0.05-0.05-0.05-0.05-0.05-0.05-0.05-0.05-0.05-0.05-0.05-0.05-0.05-0.05-0.05-0.05-0.05-0.05-0.05-0.05-0.05-0.05-0.05-0.05-0.05-0.05-0.05-0.05-0.05-0.06-0.02c0-0.08 0-0.16 0.03-0.22 0.01-0.03 0.04-0.06 0.06-0.09 0.03-0.05 0.06-0.11 0.1-0.16 0.29-0.39 0.91-0.7 1.77-0.85 1.57-0.28 3.39 0.04 4.05 0.72 0.24 0.24 0.29 0.47 0.27 0.65v2.06s0 0.01 0 0.01c0.06-0.03 0.1-0.06 0.16-0.08 0.26-0.11 0.55-0.2 0.9-0.28l1.57-0.34m-27.3 0.91h-0.01s0.01 0 0.01 0zm5.91-2.62c-0.63-0.64-2.4-0.95-3.92-0.68s-2.25 1.01-1.61 1.65c0.64 0.66 2.39 0.96 3.92 0.69 1.52-0.27 2.26-1.02 1.62-1.67zm12.11 7.22c0.64 0.66 2.39 0.96 3.92 0.69 1.52-0.27 2.26-1.02 1.62-1.67-0.63-0.64-2.4-0.95-3.92-0.68s-2.24 1.01-1.61 1.65zm6.3-7.03c-0.63-0.64-2.4-0.95-3.92-0.68s-2.24 1.01-1.61 1.65c0.64 0.65 2.39 0.96 3.92 0.69 1.52-0.27 2.26-1.02 1.62-1.67zm15.14 1.86-3.53-0.78c0.02-0.08 0.03-0.15 0-0.23s4.47-0.99 4.47-0.99l-3.88-1.64-2.31 1.9h-0.01-0.52-0.02l-1.83-1.5-3.95 1.68 4.09 0.54c-0.02 0.08-0.02 0.16 0 0.24l-6.19 1.32s-0.02 0-0.02 0 0 0 0 0c-0.3 0.07-0.59 0.16-0.84 0.26-1.26 0.53-1.37 1.37-0.34 1.96 0.02 0 0.03 0.02 0.05 0.03 0.09 0.05 0.19 0.1 0.29 0.14 0.11 0.05 0.22 0.09 0.34 0.12 0.02 0 0.04 0.01 0.06 0.02 1.39 0.44 3.35 0.39 4.61-0.14 0.26-0.11 0.46-0.23 0.62-0.36s0 0 0.01-0.01l3.11-2.63c0.18 0.01 0.37 0.01 0.55 0h0.01l1.27 1.74 3.95-1.68zm-5.52 5.56c1.51 0.27 3.26-0.04 3.89-0.69 0.64-0.65-0.08-1.4-1.59-1.67-1.54-0.27-3.3 0.04-3.93 0.69s0.09 1.39 1.63 1.67zm6.18 3.16c0.63-0.65-0.08-1.4-1.59-1.67-1.54-0.27-3.3 0.04-3.93 0.69s0.09 1.39 1.63 1.66c1.51 0.27 3.26-0.04 3.89-0.69zm-5.73 4.66c1.51 0.27 3.26-0.04 3.89-0.69 0.64-0.65-0.08-1.4-1.59-1.67-1.54-0.27-3.3 0.04-3.93 0.69s0.09 1.39 1.63 1.66zm-2 1.88v-0.24s0 0.11 0 0.11v-0.16s0 0.11 0 0.11v-0.16s0 0.11 0 0.11v-0.16s0 0.11 0 0.11v-0.16s0 0.11 0 0.11v-0.16s0 0.11 0 0.11v-0.16s0 0.11 0 0.11v-0.16s0 0.11 0 0.11v-0.16s0 0.11 0 0.11v-0.16s0 0.11 0 0.11v-0.77s0 0.21 0 0.21v-0.26s0 0.21 0 0.21v-0.26s0 0.21 0 0.21v-0.26s0 0.21 0 0.21v-0.26s0 0.21 0 0.21v-0.26s0 0.21 0 0.21v-0.26s0 0.21 0 0.21v-0.26s0 0.21 0 0.21v-0.26s0 0.21 0 0.21v-0.26s0 0.21 0 0.21v-0.26s0 0.21 0 0.21v-0.26s0 0.21 0 0.21v-1.39c-0.02-0.18 0.03-0.41 0.27-0.65 0.08-0.08 0.18-0.16 0.3-0.24-0.65-0.27-1.02-0.64-1.02-1.08v-1.41s0 0.21 0 0.21v-0.25s0 0.2 0 0.2v-0.25s0 0.2 0 0.2v-0.25s0 0.21 0 0.21v-0.25s0 0.21 0 0.21v-0.25s0 0.21 0 0.21v-0.25s0 0.21 0 0.21v-0.25s0 0.21 0 0.21v-0.25s0 0.2 0 0.2v-0.25s0 0.2 0 0.2v-0.25s0 0.21 0 0.21v-0.25s0 0.21 0 0.21v-1.03h-0.01s-1.28 1.08-1.28 1.08l-0.04 0.04h-0.01c-0.17 0.13-0.38 0.24-0.62 0.35-1.06 0.45-2.6 0.55-3.92 0.31l-2.12 0.65v0.08c1.22-0.43 2.84-0.62 5.23-0.49h0.19v1.52s0 0.03 0 0.03v3.11c0.32-0.17 0.65-0.35 1.04-0.6l0.09-0.06 1.9 1.7zm-27.61-3.77c5.08 2.16 9.54 4.34 13.2 6.42 6.33-1.65 10.73-2.27 14.34-2.51l-1.85-1.66c-1.17 0.74-1.81 1.05-3.07 1.31-0.01-0.4 0.39-0.95 1.35-1.66l-6.03 1.38c1.43 0.11 2.46 0.23 3.23 0.54-4.18 0.65-6.58 0.26-7.45-0.28-1.07-0.66-0.5-1.41 0.69-1.75 1.71-0.47 3.52-0.01 2.55 0.97 3.92-0.57 2.55-1.84 0.37-2.11 4.31 0 6.48-0.71 7.05-2.43-4.29-0.24-6.15 0.53-7.65 2.09 0.21-1.29-2.87-1.86-4.7-0.41 2.61-0.24 2.96 0.76 1.25 1.31-1.49 0.48-4.28 0.2-6.25-0.8-2.81-1.43-0.86-2.42 0.83-3.2 0.9 0.26 1.56 1.14 1.09 2.33l5.35-1.91c-2.59 0.02-3.99-0.36-5.31-0.89 1.76-0.38 5.89-0.48 5.89-0.48l-3.3-1.4s-2.85-1.21-2.85-1.21-0.22 1.76-1.12 2.5c-1.24-0.56-2.14-1.16-2.09-2.26l-4.49 2.27c2.8-0.2 4.87 0.08 5.49 0.46-1.84 0.72-4.16 1.54-7.53 0.35-2.34-0.84-3.01-2.02-1.88-2.65 1.29-0.73 3.64-0.58 3.08 0.53 3.42-0.78 2.08-2.08-0.96-2 3.68-0.63 5.49-1.43 4.92-3.25-4.06 0.24-5.73 1.16-5.72 3-0.63-0.93-3.63-1.51-4.97 0.16 2.31-0.41 3.38 0.36 2.28 1.09-0.79 0.51-2.56 0.75-4.11 0.29-1.27-0.37-2.19-1.39-0.66-3.17 0.73 0.33 1.01 0.76 1.27 1.37l3.25-2.56c-1.65 0.4-2.96 0.58-3.9 0.57 0.62-0.54 1.34-0.8 3.09-1.3l-3.9-0.79c-0.56 1.53-2.01 3.41-5.9 6.09 4.89 1.56 10.04 3.45 15.12 5.61z"/>
<g data-name="crown">
<path class="cls-2" d="M205.97,144.45c-.39.07-.79.1-1.18.1-1.21,0-2.35-.31-2.87-.84-.19-.19-.28-.39-.27-.63v-.4s0,.35,0,.35v-1.16s0,.36,0,.36v-.36s0,.22,0,.22v-1.55s0,.2,0,.2v-3.54s0-.01,0-.02c0-.08,0-.16.03-.22.01-.04.05-.08.07-.12.02-.04.04-.07.07-.11.28-.4.91-.72,1.79-.88,1.57-.28,3.39.04,4.05.72.24.24.29.47.27.66,0,0,0,0,0,0v5.87c0,.6-.77,1.12-1.97,1.33ZM207.57,136.69c-.63-.64-2.4-.95-3.93-.68-1.52.27-2.24,1.01-1.61,1.65.64.65,2.39.96,3.92.69,1.52-.27,2.26-1.02,1.62-1.67Z"/>
<path class="cls-2" d="m219.63 138.03 4.53-1.92 1.86 1.52h0.45l2.34-1.92 4.37 1.86v5.95s-0.94 0.21-0.94 0.21v1.68s-1.73 0.73-1.73 0.73v0.23c0.12 0.01 0.23 0.02 0.35 0.04 0.9 0.16 1.53 0.5 1.79 0.91 0 0.01 0.02 0.03 0.03 0.04 0.03 0.05 0.07 0.1 0.09 0.15 0.02 0.07 0.03 0.15 0.03 0.24v0.03 5.87c0 0.22-0.08 0.42-0.27 0.61-0.31 0.31-0.86 0.56-1.56 0.7v0.84s0 0.05 0 0.05v0.08s0 0.03 0 0.06v0.18s0 0.03 0 0.06v0.18s0 0.03 0 0.02v0.88s0 0.09 0 0.09v0.13s0 0.03 0 0.06v0.04c0 0.22-0.08 0.42-0.27 0.61-0.66 0.68-2.47 1-4.02 0.73-0.78-0.14-1.37-0.39-1.69-0.72h-0.01v1.47s0 0.12 0 0.12v1.14l-0.32 0.02c-4.33 0.28-8.87 1.08-14.32 2.5h-0.06s-0.05-0.01-0.05-0.01c-3.8-2.15-8.23-4.31-13.19-6.41-4.96-2.11-10.04-3.99-15.11-5.61l-0.28-0.1v-5.94l0.24-0.17c3.33-2.3 5.19-4.21 5.85-6.02l0.04-0.12 4.53 0.91v-2.02s0-0.03 0-0.04 0-0.01 0-0.02c0-0.08 0-0.16 0.03-0.22 0.01-0.04 0.05-0.07 0.07-0.11s0.04-0.07 0.07-0.11c0.28-0.4 0.91-0.72 1.79-0.88 1.57-0.28 3.39 0.04 4.05 0.72 0.25 0.25 0.29 0.49 0.27 0.68v2.79c0.74-0.15 1.61-0.26 2.64-0.32h0.11s0.03 0.1 0.03 0.1c0.08 0.25 0.11 0.48 0.1 0.7v0.03 3.99l1.28-0.65v0.02s0 0 0 0v0.24c-0.05 0.96 0.69 1.5 1.9 2.06 0.79-0.73 1-2.33 1-2.35l0.02-0.19 4.26 1.81v-2.01s0-0.03 0-0.05 0-0.01 0-0.02c0-0.08 0-0.16 0.03-0.22 0.09-0.28 0.35-0.52 0.73-0.72s0-0.03 0-0.05v-0.05-0.05-0.05-0.05-0.05-0.05-0.05-0.05-0.05-0.05-0.05-0.05-0.05-0.05-0.05-0.05-0.05-0.05-0.05-0.05-0.05-0.05-0.05-0.05-0.05-0.05-0.05-0.05-0.05-0.05-0.05-0.05-0.05-0.05-0.05-0.05-0.05-0.05-0.05-0.05-0.05-0.05-0.05-0.05-0.05-0.05-0.05-0.05-0.05-0.05-0.05-0.05-0.05-0.05-0.05-0.05-0.05-0.05-0.05-0.05-0.05-0.05-0.05-0.05-0.05-0.05-0.05-0.05-0.05-0.05-0.05-0.05-0.05-0.05-0.05-0.05-0.05-0.05-0.05-0.05-0.05-0.05-0.05-0.05-0.05-0.05-0.05-0.05-0.05-0.05-0.05-0.05-0.05-0.05-0.05-0.05-0.05-0.05-0.05-0.05-0.05-0.05-0.05-0.05-0.05-0.05-0.05-0.06-0.02c0-0.08 0-0.16 0.03-0.22 0.01-0.03 0.04-0.06 0.06-0.09 0.03-0.05 0.06-0.11 0.1-0.16 0.29-0.39 0.91-0.7 1.77-0.85 1.57-0.28 3.39 0.04 4.05 0.72 0.24 0.24 0.29 0.47 0.27 0.65v2.06s0 0.01 0 0.01c0.06-0.03 0.1-0.06 0.16-0.08 0.26-0.11 0.55-0.2 0.9-0.28l1.57-0.34m-27.29 0.91h-0.01s0.01 0 0.01 0zm5.91-2.62c-0.63-0.64-2.4-0.95-3.92-0.68s-2.25 1.01-1.61 1.65c0.64 0.66 2.39 0.96 3.92 0.69 1.52-0.27 2.26-1.02 1.62-1.67zm12.11 7.22c0.64 0.66 2.39 0.96 3.92 0.69 1.52-0.27 2.26-1.02 1.62-1.67-0.63-0.64-2.4-0.95-3.92-0.68s-2.24 1.01-1.61 1.65zm6.3-7.03c-0.63-0.64-2.4-0.95-3.92-0.68s-2.24 1.01-1.61 1.65c0.64 0.65 2.39 0.96 3.92 0.69 1.52-0.27 2.26-1.02 1.62-1.67zm15.13 1.86-3.53-0.78c0.02-0.08 0.03-0.15 0-0.23s4.47-0.99 4.47-0.99l-3.88-1.64-2.31 1.9h-0.01-0.52-0.02l-1.83-1.5-3.95 1.68 4.09 0.54c-0.02 0.08-0.02 0.16 0 0.24l-6.19 1.32s-0.02 0-0.02 0 0 0 0 0c-0.3 0.07-0.59 0.16-0.84 0.26-1.26 0.53-1.37 1.37-0.34 1.96 0.02 0 0.03 0.02 0.05 0.03 0.09 0.05 0.19 0.1 0.29 0.14 0.11 0.05 0.22 0.09 0.34 0.12 0.02 0 0.04 0.01 0.06 0.02 1.39 0.44 3.35 0.39 4.61-0.14 0.26-0.11 0.46-0.23 0.62-0.36s0 0 0.01-0.01l3.11-2.63c0.18 0.01 0.37 0.01 0.55 0h0.01l1.27 1.74 3.95-1.68zm-5.52 5.56c1.51 0.27 3.26-0.04 3.89-0.69 0.64-0.65-0.08-1.4-1.59-1.67-1.54-0.27-3.3 0.04-3.93 0.69s0.09 1.39 1.63 1.67zm6.19 3.16c0.63-0.65-0.08-1.4-1.59-1.67-1.54-0.27-3.3 0.04-3.93 0.69s0.09 1.39 1.63 1.66c1.51 0.27 3.26-0.04 3.89-0.69zm-5.73 4.66c1.51 0.27 3.26-0.04 3.89-0.69 0.64-0.65-0.08-1.4-1.59-1.67-1.54-0.27-3.3 0.04-3.93 0.69s0.09 1.39 1.63 1.66zm-2 1.88v-0.24s0 0.11 0 0.11v-0.16s0 0.11 0 0.11v-0.16s0 0.11 0 0.11v-0.16s0 0.11 0 0.11v-0.16s0 0.11 0 0.11v-0.16s0 0.11 0 0.11v-0.16s0 0.11 0 0.11v-0.16s0 0.11 0 0.11v-0.16s0 0.11 0 0.11v-0.16s0 0.11 0 0.11v-0.77s0 0.21 0 0.21v-0.26s0 0.21 0 0.21v-0.26s0 0.21 0 0.21v-0.26s0 0.21 0 0.21v-0.26s0 0.21 0 0.21v-0.26s0 0.21 0 0.21v-0.26s0 0.21 0 0.21v-0.26s0 0.21 0 0.21v-0.26s0 0.21 0 0.21v-0.26s0 0.21 0 0.21v-0.26s0 0.21 0 0.21v-0.26s0 0.21 0 0.21v-1.39c-0.02-0.18 0.03-0.41 0.27-0.65 0.08-0.08 0.18-0.16 0.3-0.24-0.65-0.27-1.02-0.64-1.02-1.08v-1.41s0 0.21 0 0.21v-0.25s0 0.2 0 0.2v-0.25s0 0.2 0 0.2v-0.25s0 0.21 0 0.21v-0.25s0 0.21 0 0.21v-0.25s0 0.21 0 0.21v-0.25s0 0.21 0 0.21v-0.25s0 0.21 0 0.21v-0.25s0 0.2 0 0.2v-0.25s0 0.2 0 0.2v-0.25s0 0.21 0 0.21v-0.25s0 0.21 0 0.21v-1.03h-0.01s-1.28 1.08-1.28 1.08l-0.04 0.04h-0.01c-0.17 0.13-0.38 0.24-0.62 0.35-1.06 0.45-2.6 0.55-3.92 0.31l-2.12 0.65v0.08c1.22-0.43 2.84-0.62 5.23-0.49h0.19v1.52s0 0.03 0 0.03v3.11c0.32-0.17 0.65-0.35 1.04-0.6l0.09-0.06 1.9 1.7zm-27.61-3.77c5.08 2.16 9.54 4.34 13.2 6.42 6.33-1.65 10.73-2.27 14.34-2.51l-1.85-1.66c-1.17 0.74-1.81 1.05-3.07 1.31-0.01-0.4 0.39-0.95 1.35-1.66l-6.03 1.38c1.43 0.11 2.46 0.23 3.23 0.54-4.18 0.65-6.58 0.26-7.45-0.28-1.07-0.66-0.5-1.41 0.69-1.75 1.71-0.47 3.52-0.01 2.55 0.97 3.92-0.57 2.55-1.84 0.37-2.11 4.31 0 6.48-0.71 7.05-2.43-4.29-0.24-6.15 0.53-7.65 2.09 0.21-1.29-2.87-1.86-4.7-0.41 2.61-0.24 2.96 0.76 1.25 1.31-1.49 0.48-4.28 0.2-6.25-0.8-2.81-1.43-0.86-2.42 0.83-3.2 0.9 0.26 1.56 1.14 1.09 2.33l5.35-1.91c-2.59 0.02-3.99-0.36-5.31-0.89 1.76-0.38 5.89-0.48 5.89-0.48l-3.3-1.4s-2.85-1.21-2.85-1.21-0.22 1.76-1.12 2.5c-1.24-0.56-2.14-1.16-2.09-2.26l-4.49 2.27c2.8-0.2 4.87 0.08 5.49 0.46-1.84 0.72-4.16 1.54-7.53 0.35-2.34-0.84-3.01-2.02-1.88-2.65 1.29-0.73 3.64-0.58 3.08 0.53 3.42-0.78 2.08-2.08-0.96-2 3.68-0.63 5.49-1.43 4.92-3.25-4.06 0.24-5.73 1.16-5.72 3-0.63-0.93-3.63-1.51-4.97 0.16 2.31-0.41 3.38 0.36 2.28 1.09-0.79 0.51-2.56 0.75-4.11 0.29-1.27-0.37-2.19-1.39-0.66-3.17 0.73 0.33 1.01 0.76 1.27 1.37l3.25-2.56c-1.65 0.4-2.96 0.58-3.9 0.57 0.62-0.54 1.34-0.8 3.09-1.3l-3.9-0.79c-0.56 1.53-2.01 3.41-5.9 6.09 4.89 1.56 10.04 3.45 15.12 5.61z"/>
</g>
<g data-name="crown">
<path class="cls-2" d="M78.92,144.45c-.39.07-.79.1-1.18.1-1.21,0-2.35-.31-2.87-.84-.19-.19-.28-.39-.27-.63v-.4s0,.35,0,.35v-1.16s0,.36,0,.36v-.36s0,.22,0,.22v-1.55s0,.2,0,.2v-3.54s0-.01,0-.02c0-.08,0-.16.03-.22.01-.04.05-.08.07-.12.02-.04.04-.07.07-.11.28-.4.91-.72,1.79-.88,1.57-.28,3.39.04,4.05.72.24.24.29.47.27.66,0,0,0,0,0,0v5.87c0,.6-.77,1.12-1.97,1.33ZM80.52,136.69c-.63-.64-2.4-.95-3.93-.68-1.52.27-2.24,1.01-1.61,1.65.64.65,2.39.96,3.92.69,1.52-.27,2.26-1.02,1.62-1.67Z"/>
<path class="cls-2" d="m92.58 138.03 4.53-1.92 1.86 1.52h0.45l2.34-1.92 4.37 1.86v5.95s-0.94 0.21-0.94 0.21v1.68s-1.73 0.73-1.73 0.73v0.23c0.12 0.01 0.23 0.02 0.35 0.04 0.9 0.16 1.53 0.5 1.79 0.91 0 0.01 0.02 0.03 0.03 0.04 0.03 0.05 0.07 0.1 0.09 0.15 0.02 0.07 0.03 0.15 0.03 0.24v0.03 5.87c0 0.22-0.08 0.42-0.27 0.61-0.31 0.31-0.86 0.56-1.56 0.7v0.84s0 0.05 0 0.05v0.08s0 0.03 0 0.06v0.18s0 0.03 0 0.06v0.18s0 0.03 0 0.02v0.88s0 0.09 0 0.09v0.13s0 0.03 0 0.06v0.04c0 0.22-0.08 0.42-0.27 0.61-0.66 0.68-2.47 1-4.02 0.73-0.78-0.14-1.37-0.39-1.69-0.72h-0.01v1.47s0 0.12 0 0.12v1.14l-0.32 0.02c-4.33 0.28-8.87 1.08-14.32 2.5h-0.06s-0.05-0.01-0.05-0.01c-3.8-2.15-8.23-4.31-13.19-6.41-4.96-2.11-10.04-3.99-15.11-5.61l-0.28-0.1v-5.94l0.24-0.17c3.33-2.3 5.19-4.21 5.85-6.02l0.04-0.12 4.53 0.91v-2.02s0-0.03 0-0.04 0-0.01 0-0.02c0-0.08 0-0.16 0.03-0.22 0.01-0.04 0.05-0.07 0.07-0.11s0.04-0.07 0.07-0.11c0.28-0.4 0.91-0.72 1.79-0.88 1.57-0.28 3.39 0.04 4.05 0.72 0.25 0.25 0.29 0.49 0.27 0.68v2.79c0.74-0.15 1.61-0.26 2.64-0.32h0.11s0.03 0.1 0.03 0.1c0.08 0.25 0.11 0.48 0.1 0.7v0.03 3.99l1.28-0.65v0.02s0 0 0 0v0.24c-0.05 0.96 0.69 1.5 1.9 2.06 0.79-0.73 1-2.33 1-2.35l0.02-0.19 4.26 1.81v-2.01s0-0.03 0-0.05 0-0.01 0-0.02c0-0.08 0-0.16 0.03-0.22 0.09-0.28 0.35-0.52 0.73-0.72s0-0.03 0-0.05v-0.05-0.05-0.05-0.05-0.05-0.05-0.05-0.05-0.05-0.05-0.05-0.05-0.05-0.05-0.05-0.05-0.05-0.05-0.05-0.05-0.05-0.05-0.05-0.05-0.05-0.05-0.05-0.05-0.05-0.05-0.05-0.05-0.05-0.05-0.05-0.05-0.05-0.05-0.05-0.05-0.05-0.05-0.05-0.05-0.05-0.05-0.05-0.05-0.05-0.05-0.05-0.05-0.05-0.05-0.05-0.05-0.05-0.05-0.05-0.05-0.05-0.05-0.05-0.05-0.05-0.05-0.05-0.05-0.05-0.05-0.05-0.05-0.05-0.05-0.05-0.05-0.05-0.05-0.05-0.05-0.05-0.05-0.05-0.05-0.05-0.05-0.05-0.05-0.05-0.05-0.05-0.05-0.05-0.05-0.05-0.05-0.05-0.05-0.05-0.05-0.05-0.05-0.05-0.05-0.05-0.05-0.05-0.06-0.02c0-0.08 0-0.16 0.03-0.22 0.01-0.03 0.04-0.06 0.06-0.09 0.03-0.05 0.06-0.11 0.1-0.16 0.29-0.39 0.91-0.7 1.77-0.85 1.57-0.28 3.39 0.04 4.05 0.72 0.24 0.24 0.29 0.47 0.27 0.65v2.06s0 0.01 0 0.01c0.06-0.03 0.1-0.06 0.16-0.08 0.26-0.11 0.55-0.2 0.9-0.28l1.57-0.34m-27.29 0.91h-0.01s0.01 0 0.01 0zm5.91-2.62c-0.63-0.64-2.4-0.95-3.92-0.68s-2.25 1.01-1.61 1.65c0.64 0.66 2.39 0.96 3.92 0.69 1.52-0.27 2.26-1.02 1.62-1.67zm12.11 7.22c0.64 0.66 2.39 0.96 3.92 0.69 1.52-0.27 2.26-1.02 1.62-1.67-0.63-0.64-2.4-0.95-3.92-0.68s-2.24 1.01-1.61 1.65zm6.3-7.03c-0.63-0.64-2.4-0.95-3.92-0.68s-2.24 1.01-1.61 1.65c0.64 0.65 2.39 0.96 3.92 0.69 1.52-0.27 2.26-1.02 1.62-1.67zm15.13 1.86-3.53-0.78c0.02-0.08 0.03-0.15 0-0.23s4.47-0.99 4.47-0.99l-3.88-1.64-2.31 1.9h-0.01-0.52-0.02l-1.83-1.5-3.95 1.68 4.09 0.54c-0.02 0.08-0.02 0.16 0 0.24l-6.19 1.32s-0.02 0-0.02 0 0 0 0 0c-0.3 0.07-0.59 0.16-0.84 0.26-1.26 0.53-1.37 1.37-0.34 1.96 0.02 0 0.03 0.02 0.05 0.03 0.09 0.05 0.19 0.1 0.29 0.14 0.11 0.05 0.22 0.09 0.34 0.12 0.02 0 0.04 0.01 0.06 0.02 1.39 0.44 3.35 0.39 4.61-0.14 0.26-0.11 0.46-0.23 0.62-0.36s0 0 0.01-0.01l3.11-2.63c0.18 0.01 0.37 0.01 0.55 0h0.01l1.27 1.74 3.95-1.68zm-5.51 5.56c1.51 0.27 3.26-0.04 3.89-0.69 0.64-0.65-0.08-1.4-1.59-1.67-1.54-0.27-3.3 0.04-3.93 0.69s0.09 1.39 1.63 1.67zm6.18 3.16c0.63-0.65-0.08-1.4-1.59-1.67-1.54-0.27-3.3 0.04-3.93 0.69s0.09 1.39 1.63 1.66c1.51 0.27 3.26-0.04 3.89-0.69zm-5.73 4.66c1.51 0.27 3.26-0.04 3.89-0.69 0.64-0.65-0.08-1.4-1.59-1.67-1.54-0.27-3.3 0.04-3.93 0.69s0.09 1.39 1.63 1.66zm-2 1.88v-0.24s0 0.11 0 0.11v-0.16s0 0.11 0 0.11v-0.16s0 0.11 0 0.11v-0.16s0 0.11 0 0.11v-0.16s0 0.11 0 0.11v-0.16s0 0.11 0 0.11v-0.16s0 0.11 0 0.11v-0.16s0 0.11 0 0.11v-0.16s0 0.11 0 0.11v-0.16s0 0.11 0 0.11v-0.77s0 0.21 0 0.21v-0.26s0 0.21 0 0.21v-0.26s0 0.21 0 0.21v-0.26s0 0.21 0 0.21v-0.26s0 0.21 0 0.21v-0.26s0 0.21 0 0.21v-0.26s0 0.21 0 0.21v-0.26s0 0.21 0 0.21v-0.26s0 0.21 0 0.21v-0.26s0 0.21 0 0.21v-0.26s0 0.21 0 0.21v-0.26s0 0.21 0 0.21v-1.39c-0.02-0.18 0.03-0.41 0.27-0.65 0.08-0.08 0.18-0.16 0.3-0.24-0.65-0.27-1.02-0.64-1.02-1.08v-1.41s0 0.21 0 0.21v-0.25s0 0.2 0 0.2v-0.25s0 0.2 0 0.2v-0.25s0 0.21 0 0.21v-0.25s0 0.21 0 0.21v-0.25s0 0.21 0 0.21v-0.25s0 0.21 0 0.21v-0.25s0 0.21 0 0.21v-0.25s0 0.2 0 0.2v-0.25s0 0.2 0 0.2v-0.25s0 0.21 0 0.21v-0.25s0 0.21 0 0.21v-1.03h-0.01s-1.28 1.08-1.28 1.08l-0.04 0.04h-0.01c-0.17 0.13-0.38 0.24-0.62 0.35-1.06 0.45-2.6 0.55-3.92 0.31l-2.12 0.65v0.08c1.22-0.43 2.84-0.62 5.23-0.49h0.19v1.52s0 0.03 0 0.03v3.11c0.32-0.17 0.65-0.35 1.04-0.6l0.09-0.06 1.9 1.7zm-27.61-3.77c5.08 2.16 9.54 4.34 13.2 6.42 6.33-1.65 10.73-2.27 14.34-2.51l-1.85-1.66c-1.17 0.74-1.81 1.05-3.07 1.31-0.01-0.4 0.39-0.95 1.35-1.66l-6.03 1.38c1.43 0.11 2.46 0.23 3.23 0.54-4.18 0.65-6.58 0.26-7.45-0.28-1.07-0.66-0.5-1.41 0.69-1.75 1.71-0.47 3.52-0.01 2.55 0.97 3.92-0.57 2.55-1.84 0.37-2.11 4.31 0 6.48-0.71 7.05-2.43-4.29-0.24-6.15 0.53-7.65 2.09 0.21-1.29-2.87-1.86-4.7-0.41 2.61-0.24 2.96 0.76 1.25 1.31-1.49 0.48-4.28 0.2-6.25-0.8-2.81-1.43-0.86-2.42 0.83-3.2 0.9 0.26 1.56 1.14 1.09 2.33l5.35-1.91c-2.59 0.02-3.99-0.36-5.31-0.89 1.76-0.38 5.89-0.48 5.89-0.48l-3.3-1.4s-2.85-1.21-2.85-1.21-0.22 1.76-1.12 2.5c-1.24-0.56-2.14-1.16-2.09-2.26l-4.49 2.27c2.8-0.2 4.87 0.08 5.49 0.46-1.84 0.72-4.16 1.54-7.53 0.35-2.34-0.84-3.01-2.02-1.88-2.65 1.29-0.73 3.64-0.58 3.08 0.53 3.42-0.78 2.08-2.08-0.96-2 3.68-0.63 5.49-1.43 4.92-3.25-4.06 0.24-5.73 1.16-5.72 3-0.63-0.93-3.63-1.51-4.97 0.16 2.31-0.41 3.38 0.36 2.28 1.09-0.79 0.51-2.56 0.75-4.11 0.29-1.27-0.37-2.19-1.39-0.66-3.17 0.73 0.33 1.01 0.76 1.27 1.37l3.25-2.56c-1.65 0.4-2.96 0.58-3.9 0.57 0.62-0.54 1.34-0.8 3.09-1.3l-3.9-0.79c-0.56 1.53-2.01 3.41-5.9 6.09 4.89 1.56 10.04 3.45 15.12 5.61z"/>
</g>
<g data-name="crown">
<path class="cls-2" d="M142.45,117.46c-.39.07-.79.1-1.18.1-1.21,0-2.35-.31-2.87-.84-.19-.19-.28-.39-.27-.63v-.4s0,.35,0,.35v-1.16s0,.36,0,.36v-.36s0,.22,0,.22v-1.55s0,.2,0,.2v-3.54s0-.01,0-.02c0-.08,0-.16.03-.22.01-.04.05-.08.07-.12.02-.04.04-.07.07-.11.28-.4.91-.72,1.79-.88,1.57-.28,3.39.04,4.05.72.24.24.29.47.27.66,0,0,0,0,0,0v5.87c0,.6-.77,1.12-1.97,1.33ZM144.04,109.7c-.63-.64-2.4-.95-3.93-.68-1.52.27-2.24,1.01-1.61,1.65.64.65,2.39.96,3.92.69,1.52-.27,2.26-1.02,1.62-1.67Z"/>
<path class="cls-2" d="m156.11 111.04 4.53-1.92 1.86 1.52h0.45l2.34-1.92 4.37 1.86v5.95s-0.94 0.21-0.94 0.21v1.68s-1.73 0.73-1.73 0.73v0.23c0.12 0.01 0.23 0.02 0.35 0.04 0.9 0.16 1.53 0.5 1.79 0.91 0 0.01 0.02 0.03 0.03 0.04 0.03 0.05 0.07 0.1 0.09 0.15 0.02 0.07 0.03 0.15 0.03 0.24v0.03 5.87c0 0.22-0.08 0.42-0.27 0.61-0.31 0.31-0.86 0.56-1.56 0.7v0.84s0 0.05 0 0.05v0.08s0 0.03 0 0.06v0.18s0 0.03 0 0.06v0.18s0 0.03 0 0.02v0.88s0 0.09 0 0.09v0.13s0 0.03 0 0.06v0.04c0 0.22-0.08 0.42-0.27 0.61-0.66 0.68-2.47 1-4.02 0.73-0.78-0.14-1.37-0.39-1.69-0.72h-0.01v1.47s0 0.12 0 0.12v1.14l-0.32 0.02c-4.33 0.28-8.87 1.08-14.32 2.5h-0.06s-0.05-0.01-0.05-0.01c-3.8-2.15-8.23-4.31-13.19-6.41-4.96-2.11-10.04-3.99-15.11-5.61l-0.28-0.1v-5.94l0.24-0.17c3.33-2.3 5.19-4.21 5.85-6.02l0.04-0.12 4.53 0.91v-2.02s0-0.03 0-0.04 0-0.01 0-0.02c0-0.08 0-0.16 0.03-0.22 0.01-0.04 0.05-0.07 0.07-0.11s0.04-0.07 0.07-0.11c0.28-0.4 0.91-0.72 1.79-0.88 1.57-0.28 3.39 0.04 4.05 0.72 0.25 0.25 0.29 0.49 0.27 0.68v2.79c0.74-0.15 1.61-0.26 2.64-0.32h0.11s0.03 0.1 0.03 0.1c0.08 0.25 0.11 0.48 0.1 0.7v0.03 3.99l1.28-0.65v0.02s0 0 0 0v0.24c-0.05 0.96 0.69 1.5 1.9 2.06 0.79-0.73 1-2.33 1-2.35l0.02-0.19 4.26 1.81v-2.01s0-0.03 0-0.05 0-0.01 0-0.02c0-0.08 0-0.16 0.03-0.22 0.09-0.28 0.35-0.52 0.73-0.72s0-0.03 0-0.05v-0.05-0.05-0.05-0.05-0.05-0.05-0.05-0.05-0.05-0.05-0.05-0.05-0.05-0.05-0.05-0.05-0.05-0.05-0.05-0.05-0.05-0.05-0.05-0.05-0.05-0.05-0.05-0.05-0.05-0.05-0.05-0.05-0.05-0.05-0.05-0.05-0.05-0.05-0.05-0.05-0.05-0.05-0.05-0.05-0.05-0.05-0.05-0.05-0.05-0.05-0.05-0.05-0.05-0.05-0.05-0.05-0.05-0.05-0.05-0.05-0.05-0.05-0.05-0.05-0.05-0.05-0.05-0.05-0.05-0.05-0.05-0.05-0.05-0.05-0.05-0.05-0.05-0.05-0.05-0.05-0.05-0.05-0.05-0.05-0.05-0.05-0.05-0.05-0.05-0.05-0.05-0.05-0.05-0.05-0.05-0.05-0.05-0.05-0.05-0.05-0.05-0.05-0.05-0.05-0.05-0.05-0.05-0.06-0.02c0-0.08 0-0.16 0.03-0.22 0.01-0.03 0.04-0.06 0.06-0.09 0.03-0.05 0.06-0.11 0.1-0.16 0.29-0.39 0.91-0.7 1.77-0.85 1.57-0.28 3.39 0.04 4.05 0.72 0.24 0.24 0.29 0.47 0.27 0.65v2.06s0 0.01 0 0.01c0.06-0.03 0.1-0.06 0.16-0.08 0.26-0.11 0.55-0.2 0.9-0.28l1.57-0.34m-27.3 0.91h-0.01s0.01 0 0.01 0zm5.91-2.62c-0.63-0.64-2.4-0.95-3.92-0.68s-2.25 1.01-1.61 1.65c0.64 0.66 2.39 0.96 3.92 0.69 1.52-0.27 2.26-1.02 1.62-1.67zm12.11 7.22c0.64 0.66 2.39 0.96 3.92 0.69 1.52-0.27 2.26-1.02 1.62-1.67-0.63-0.64-2.4-0.95-3.92-0.68s-2.24 1.01-1.61 1.65zm6.3-7.03c-0.63-0.64-2.4-0.95-3.92-0.68s-2.24 1.01-1.61 1.65c0.64 0.65 2.39 0.96 3.92 0.69 1.52-0.27 2.26-1.02 1.62-1.67zm15.14 1.86-3.53-0.78c0.02-0.08 0.03-0.15 0-0.23s4.47-0.99 4.47-0.99l-3.88-1.64-2.31 1.9h-0.01-0.52-0.02l-1.83-1.5-3.95 1.68 4.09 0.54c-0.02 0.08-0.02 0.16 0 0.24l-6.19 1.32s-0.02 0-0.02 0 0 0 0 0c-0.3 0.07-0.59 0.16-0.84 0.26-1.26 0.53-1.37 1.37-0.34 1.96 0.02 0 0.03 0.02 0.05 0.03 0.09 0.05 0.19 0.1 0.29 0.14 0.11 0.05 0.22 0.09 0.34 0.12 0.02 0 0.04 0.01 0.06 0.02 1.39 0.44 3.35 0.39 4.61-0.14 0.26-0.11 0.46-0.23 0.62-0.36s0 0 0.01-0.01l3.11-2.63c0.18 0.01 0.37 0.01 0.55 0h0.01l1.27 1.74 3.95-1.68zm-5.52 5.56c1.51 0.27 3.26-0.04 3.89-0.69 0.64-0.65-0.08-1.4-1.59-1.67-1.54-0.27-3.3 0.04-3.93 0.69s0.09 1.39 1.63 1.67zm6.18 3.16c0.63-0.65-0.08-1.4-1.59-1.67-1.54-0.27-3.3 0.04-3.93 0.69s0.09 1.39 1.63 1.66c1.51 0.27 3.26-0.04 3.89-0.69zm-5.73 4.66c1.51 0.27 3.26-0.04 3.89-0.69 0.64-0.65-0.08-1.4-1.59-1.67-1.54-0.27-3.3 0.04-3.93 0.69s0.09 1.39 1.63 1.66zm-2 1.88v-0.24s0 0.11 0 0.11v-0.16s0 0.11 0 0.11v-0.16s0 0.11 0 0.11v-0.16s0 0.11 0 0.11v-0.16s0 0.11 0 0.11v-0.16s0 0.11 0 0.11v-0.16s0 0.11 0 0.11v-0.16s0 0.11 0 0.11v-0.16s0 0.11 0 0.11v-0.16s0 0.11 0 0.11v-0.77s0 0.21 0 0.21v-0.26s0 0.21 0 0.21v-0.26s0 0.21 0 0.21v-0.26s0 0.21 0 0.21v-0.26s0 0.21 0 0.21v-0.26s0 0.21 0 0.21v-0.26s0 0.21 0 0.21v-0.26s0 0.21 0 0.21v-0.26s0 0.21 0 0.21v-0.26s0 0.21 0 0.21v-0.26s0 0.21 0 0.21v-0.26s0 0.21 0 0.21v-1.39c-0.02-0.18 0.03-0.41 0.27-0.65 0.08-0.08 0.18-0.16 0.3-0.24-0.65-0.27-1.02-0.64-1.02-1.08v-1.41s0 0.21 0 0.21v-0.25s0 0.2 0 0.2v-0.25s0 0.2 0 0.2v-0.25s0 0.21 0 0.21v-0.25s0 0.21 0 0.21v-0.25s0 0.21 0 0.21v-0.25s0 0.21 0 0.21v-0.25s0 0.21 0 0.21v-0.25s0 0.2 0 0.2v-0.25s0 0.2 0 0.2v-0.25s0 0.21 0 0.21v-0.25s0 0.21 0 0.21v-1.03h-0.01s-1.28 1.08-1.28 1.08l-0.04 0.04h-0.01c-0.17 0.13-0.38 0.24-0.62 0.35-1.06 0.45-2.6 0.55-3.92 0.31l-2.12 0.65v0.08c1.22-0.43 2.84-0.62 5.23-0.49h0.19v1.52s0 0.03 0 0.03v3.11c0.32-0.17 0.65-0.35 1.04-0.6l0.09-0.06 1.9 1.7zm-27.61-3.77c5.08 2.16 9.54 4.34 13.2 6.42 6.33-1.65 10.73-2.27 14.34-2.51l-1.85-1.66c-1.17 0.74-1.81 1.05-3.07 1.31-0.01-0.4 0.39-0.95 1.35-1.66l-6.03 1.38c1.43 0.11 2.46 0.23 3.23 0.54-4.18 0.65-6.58 0.26-7.45-0.28-1.07-0.66-0.5-1.41 0.69-1.75 1.71-0.47 3.52-0.01 2.55 0.97 3.92-0.57 2.55-1.84 0.37-2.11 4.31 0 6.48-0.71 7.05-2.43-4.29-0.24-6.15 0.53-7.65 2.09 0.21-1.29-2.87-1.86-4.7-0.41 2.61-0.24 2.96 0.76 1.25 1.31-1.49 0.48-4.28 0.2-6.25-0.8-2.81-1.43-0.86-2.42 0.83-3.2 0.9 0.26 1.56 1.14 1.09 2.33l5.35-1.91c-2.59 0.02-3.99-0.36-5.31-0.89 1.76-0.38 5.89-0.48 5.89-0.48l-3.3-1.4s-2.85-1.21-2.85-1.21-0.22 1.76-1.12 2.5c-1.24-0.56-2.14-1.16-2.09-2.26l-4.49 2.27c2.8-0.2 4.87 0.08 5.49 0.46-1.84 0.72-4.16 1.54-7.53 0.35-2.34-0.84-3.01-2.02-1.88-2.65 1.29-0.73 3.64-0.58 3.08 0.53 3.42-0.78 2.08-2.08-0.96-2 3.68-0.63 5.49-1.43 4.92-3.25-4.06 0.24-5.73 1.16-5.72 3-0.63-0.93-3.63-1.51-4.97 0.16 2.31-0.41 3.38 0.36 2.28 1.09-0.79 0.51-2.56 0.75-4.11 0.29-1.27-0.37-2.19-1.39-0.66-3.17 0.73 0.33 1.01 0.76 1.27 1.37l3.25-2.56c-1.65 0.4-2.96 0.58-3.9 0.57 0.62-0.54 1.34-0.8 3.09-1.3l-3.9-0.79c-0.56 1.53-2.01 3.41-5.9 6.09 4.89 1.56 10.04 3.45 15.12 5.61z"/>
</g>
<g data-name="block">
<polygon class="cls-3" points="86.47 93.33 150 66.34 277.05 120.32 277.05 150 213.52 176.99 86.47 123.16 86.47 93.48 213.52 147.31" data-name="surface"/>
<path class="cls-2" d="m86.47 93.33 63.53-26.99 127.05 53.98v29.68l-63.53 26.99-127.05-53.83v-29.68l127.05 53.83-127.05-53.98zm126.88 54.1-126.7-53.68v29.3l126.7 53.68v-29.3zm0.35 29.29 63.17-26.84v-29.3l-63.17 26.84v29.3zm-63.7-110.19-63.08 26.8 126.6 53.79 63.08-26.8-126.6-53.79z" data-name="outline"/>
</g>
<g data-name="crown">
<path class="cls-2" d="M205.97,114.77c-.39.07-.79.1-1.18.1-1.21,0-2.35-.31-2.87-.84-.19-.19-.28-.39-.27-.63v-.4s0,.35,0,.35v-1.16s0,.36,0,.36v-.36s0,.22,0,.22v-1.55s0,.2,0,.2v-3.54s0-.01,0-.02c0-.08,0-.16.03-.22.01-.04.05-.08.07-.12.02-.04.04-.07.07-.11.28-.4.91-.72,1.79-.88,1.57-.28,3.39.04,4.05.72.24.24.29.47.27.66,0,0,0,0,0,0v5.87c0,.6-.77,1.12-1.97,1.33ZM207.56,107.01c-.63-.64-2.4-.95-3.93-.68-1.52.27-2.24,1.01-1.61,1.65.64.65,2.39.96,3.92.69,1.52-.27,2.26-1.02,1.62-1.67Z"/>
<path class="cls-2" d="m219.63 108.35 4.53-1.92 1.86 1.52h0.45l2.34-1.92 4.37 1.86v5.95s-0.94 0.21-0.94 0.21v1.68s-1.73 0.73-1.73 0.73v0.23c0.12 0.01 0.23 0.02 0.35 0.04 0.9 0.16 1.53 0.5 1.79 0.91 0 0.01 0.02 0.03 0.03 0.04 0.03 0.05 0.07 0.1 0.09 0.15 0.02 0.07 0.03 0.15 0.03 0.24v0.03 5.87c0 0.22-0.08 0.42-0.27 0.61-0.31 0.31-0.86 0.56-1.56 0.7v0.84s0 0.05 0 0.05v0.08s0 0.03 0 0.06v0.18s0 0.03 0 0.06v0.18s0 0.03 0 0.02v0.88s0 0.09 0 0.09v0.13s0 0.03 0 0.06v0.04c0 0.22-0.08 0.42-0.27 0.61-0.66 0.68-2.47 1-4.02 0.73-0.78-0.14-1.37-0.39-1.69-0.72h-0.01v1.47s0 0.12 0 0.12v1.14l-0.32 0.02c-4.33 0.28-8.87 1.08-14.32 2.5h-0.06s-0.05-0.01-0.05-0.01c-3.8-2.15-8.23-4.31-13.19-6.41-4.96-2.11-10.04-3.99-15.11-5.61l-0.28-0.1v-5.94l0.24-0.17c3.33-2.3 5.19-4.21 5.85-6.02l0.04-0.12 4.53 0.91v-2.02s0-0.03 0-0.04 0-0.01 0-0.02c0-0.08 0-0.16 0.03-0.22 0.01-0.04 0.05-0.07 0.07-0.11s0.04-0.07 0.07-0.11c0.28-0.4 0.91-0.72 1.79-0.88 1.57-0.28 3.39 0.04 4.05 0.72 0.25 0.25 0.29 0.49 0.27 0.68v2.79c0.74-0.15 1.61-0.26 2.64-0.32h0.11s0.03 0.1 0.03 0.1c0.08 0.25 0.11 0.48 0.1 0.7v0.03 3.99l1.28-0.65v0.02s0 0 0 0v0.24c-0.05 0.96 0.69 1.5 1.9 2.06 0.79-0.73 1-2.33 1-2.35l0.02-0.19 4.26 1.81v-2.01s0-0.03 0-0.05 0-0.01 0-0.02c0-0.08 0-0.16 0.03-0.22 0.09-0.28 0.35-0.52 0.73-0.72s0-0.03 0-0.05v-0.05-0.05-0.05-0.05-0.05-0.05-0.05-0.05-0.05-0.05-0.05-0.05-0.05-0.05-0.05-0.05-0.05-0.05-0.05-0.05-0.05-0.05-0.05-0.05-0.05-0.05-0.05-0.05-0.05-0.05-0.05-0.05-0.05-0.05-0.05-0.05-0.05-0.05-0.05-0.05-0.05-0.05-0.05-0.05-0.05-0.05-0.05-0.05-0.05-0.05-0.05-0.05-0.05-0.05-0.05-0.05-0.05-0.05-0.05-0.05-0.05-0.05-0.05-0.05-0.05-0.05-0.05-0.05-0.05-0.05-0.05-0.05-0.05-0.05-0.05-0.05-0.05-0.05-0.05-0.05-0.05-0.05-0.05-0.05-0.05-0.05-0.05-0.05-0.05-0.05-0.05-0.05-0.05-0.05-0.05-0.05-0.05-0.05-0.05-0.05-0.05-0.05-0.05-0.05-0.05-0.05-0.05-0.06-0.02c0-0.08 0-0.16 0.03-0.22 0.01-0.03 0.04-0.06 0.06-0.09 0.03-0.05 0.06-0.11 0.1-0.16 0.29-0.39 0.91-0.7 1.77-0.85 1.57-0.28 3.39 0.04 4.05 0.72 0.24 0.24 0.29 0.47 0.27 0.65v2.06s0 0.01 0 0.01c0.06-0.03 0.1-0.06 0.16-0.08 0.26-0.11 0.55-0.2 0.9-0.28l1.57-0.34m-27.3 0.91h-0.01s0.01 0 0.01 0zm5.91-2.62c-0.63-0.64-2.4-0.95-3.92-0.68s-2.25 1.01-1.61 1.65c0.64 0.66 2.39 0.96 3.92 0.69 1.52-0.27 2.26-1.02 1.62-1.67zm12.11 7.22c0.64 0.66 2.39 0.96 3.92 0.69 1.52-0.27 2.26-1.02 1.62-1.67-0.63-0.64-2.4-0.95-3.92-0.68s-2.24 1.01-1.61 1.65zm6.3-7.03c-0.63-0.64-2.4-0.95-3.92-0.68s-2.24 1.01-1.61 1.65c0.64 0.65 2.39 0.96 3.92 0.69 1.52-0.27 2.26-1.02 1.62-1.67zm15.14 1.86-3.53-0.78c0.02-0.08 0.03-0.15 0-0.23s4.47-0.99 4.47-0.99l-3.88-1.64-2.31 1.9h-0.01-0.52-0.02l-1.83-1.5-3.95 1.68 4.09 0.54c-0.02 0.08-0.02 0.16 0 0.24l-6.19 1.32s-0.02 0-0.02 0 0 0 0 0c-0.3 0.07-0.59 0.16-0.84 0.26-1.26 0.53-1.37 1.37-0.34 1.96 0.02 0 0.03 0.02 0.05 0.03 0.09 0.05 0.19 0.1 0.29 0.14 0.11 0.05 0.22 0.09 0.34 0.12 0.02 0 0.04 0.01 0.06 0.02 1.39 0.44 3.35 0.39 4.61-0.14 0.26-0.11 0.46-0.23 0.62-0.36s0 0 0.01-0.01l3.11-2.63c0.18 0.01 0.37 0.01 0.55 0h0.01l1.27 1.74 3.95-1.68zm-5.52 5.56c1.51 0.27 3.26-0.04 3.89-0.69 0.64-0.65-0.08-1.4-1.59-1.67-1.54-0.27-3.3 0.04-3.93 0.69s0.09 1.39 1.63 1.67zm6.18 3.16c0.63-0.65-0.08-1.4-1.59-1.67-1.54-0.27-3.3 0.04-3.93 0.69s0.09 1.39 1.63 1.66c1.51 0.27 3.26-0.04 3.89-0.69zm-5.72 4.66c1.51 0.27 3.26-0.04 3.89-0.69 0.64-0.65-0.08-1.4-1.59-1.67-1.54-0.27-3.3 0.04-3.93 0.69s0.09 1.39 1.63 1.66zm-2.01 1.89v-0.24s0 0.11 0 0.11v-0.16s0 0.11 0 0.11v-0.16s0 0.11 0 0.11v-0.16s0 0.11 0 0.11v-0.16s0 0.11 0 0.11v-0.16s0 0.11 0 0.11v-0.16s0 0.11 0 0.11v-0.16s0 0.11 0 0.11v-0.16s0 0.11 0 0.11v-0.16s0 0.11 0 0.11v-0.77s0 0.21 0 0.21v-0.26s0 0.21 0 0.21v-0.26s0 0.21 0 0.21v-0.26s0 0.21 0 0.21v-0.26s0 0.21 0 0.21v-0.26s0 0.21 0 0.21v-0.26s0 0.21 0 0.21v-0.26s0 0.21 0 0.21v-0.26s0 0.21 0 0.21v-0.26s0 0.21 0 0.21v-0.26s0 0.21 0 0.21v-0.26s0 0.21 0 0.21v-1.39c-0.02-0.18 0.03-0.41 0.27-0.65 0.08-0.08 0.18-0.16 0.3-0.24-0.65-0.27-1.02-0.64-1.02-1.08v-1.41s0 0.21 0 0.21v-0.25s0 0.2 0 0.2v-0.25s0 0.2 0 0.2v-0.25s0 0.21 0 0.21v-0.25s0 0.21 0 0.21v-0.25s0 0.21 0 0.21v-0.25s0 0.21 0 0.21v-0.25s0 0.21 0 0.21v-0.25s0 0.2 0 0.2v-0.25s0 0.2 0 0.2v-0.25s0 0.21 0 0.21v-0.25s0 0.21 0 0.21v-1.03h-0.01s-1.28 1.08-1.28 1.08l-0.04 0.04h-0.01c-0.17 0.13-0.38 0.24-0.62 0.35-1.06 0.45-2.6 0.55-3.92 0.31l-2.12 0.65v0.08c1.22-0.43 2.84-0.62 5.23-0.49h0.19v1.52s0 0.03 0 0.03v3.11c0.32-0.17 0.65-0.35 1.04-0.6l0.09-0.06 1.9 1.7zm-27.61-3.78c5.08 2.16 9.54 4.34 13.2 6.42 6.33-1.65 10.73-2.27 14.34-2.51l-1.85-1.66c-1.17 0.74-1.81 1.05-3.07 1.31-0.01-0.4 0.39-0.95 1.35-1.66l-6.03 1.38c1.43 0.11 2.46 0.23 3.23 0.54-4.18 0.65-6.58 0.26-7.45-0.28-1.07-0.66-0.5-1.41 0.69-1.75 1.71-0.47 3.52-0.01 2.55 0.97 3.92-0.57 2.55-1.84 0.37-2.11 4.31 0 6.48-0.71 7.05-2.43-4.29-0.24-6.15 0.53-7.65 2.09 0.21-1.29-2.87-1.86-4.7-0.41 2.61-0.24 2.96 0.76 1.25 1.31-1.49 0.48-4.28 0.2-6.25-0.8-2.81-1.43-0.86-2.42 0.83-3.2 0.9 0.26 1.56 1.14 1.09 2.33l5.35-1.91c-2.59 0.02-3.99-0.36-5.31-0.89 1.76-0.38 5.89-0.48 5.89-0.48l-3.3-1.4s-2.85-1.21-2.85-1.21-0.22 1.76-1.12 2.5c-1.24-0.56-2.14-1.16-2.09-2.26l-4.49 2.27c2.8-0.2 4.87 0.08 5.49 0.46-1.84 0.72-4.16 1.54-7.53 0.35-2.34-0.84-3.01-2.02-1.88-2.65 1.29-0.73 3.64-0.58 3.08 0.53 3.42-0.78 2.08-2.08-0.96-2 3.68-0.63 5.49-1.43 4.92-3.25-4.06 0.24-5.73 1.16-5.72 3-0.63-0.93-3.63-1.51-4.97 0.16 2.31-0.41 3.38 0.36 2.28 1.09-0.79 0.51-2.56 0.75-4.11 0.29-1.27-0.37-2.19-1.39-0.66-3.17 0.73 0.33 1.01 0.76 1.27 1.37l3.25-2.56c-1.65 0.4-2.96 0.58-3.9 0.57 0.62-0.54 1.34-0.8 3.09-1.3l-3.9-0.79c-0.56 1.53-2.01 3.41-5.9 6.09 4.89 1.56 10.04 3.45 15.12 5.61z"/>
</g>
<g data-name="crown">
<path class="cls-2" d="M142.44,87.78c-.39.07-.79.1-1.18.1-1.21,0-2.35-.31-2.87-.84-.19-.19-.28-.39-.27-.63v-.4s0,.35,0,.35v-1.16s0,.36,0,.36v-.36s0,.22,0,.22v-1.55s0,.2,0,.2v-3.54s0-.01,0-.02c0-.08,0-.16.03-.22.01-.04.05-.08.07-.12.02-.04.04-.07.07-.11.28-.4.91-.72,1.79-.88,1.57-.28,3.39.04,4.05.72.24.24.29.47.27.66,0,0,0,0,0,0v5.87c0,.6-.77,1.12-1.97,1.33ZM144.04,80.02c-.63-.64-2.4-.95-3.93-.68-1.52.27-2.24,1.01-1.61,1.65.64.65,2.39.96,3.92.69,1.52-.27,2.26-1.02,1.62-1.67Z"/>
<path class="cls-2" d="m156.11 81.36 4.53-1.92 1.86 1.52h0.45l2.34-1.92 4.37 1.86v5.95s-0.94 0.21-0.94 0.21v1.68s-1.73 0.73-1.73 0.73v0.23c0.12 0.01 0.23 0.02 0.35 0.04 0.9 0.16 1.53 0.5 1.79 0.91 0 0.01 0.02 0.03 0.03 0.04 0.03 0.05 0.07 0.1 0.09 0.15 0.02 0.07 0.03 0.15 0.03 0.24v0.03 5.87c0 0.22-0.08 0.42-0.27 0.61-0.31 0.31-0.86 0.56-1.56 0.7v0.84s0 0.05 0 0.05v0.08s0 0.03 0 0.06v0.18s0 0.03 0 0.06v0.18s0 0.03 0 0.02v0.88s0 0.09 0 0.09v0.13s0 0.03 0 0.06v0.04c0 0.22-0.08 0.42-0.27 0.61-0.66 0.68-2.47 1-4.02 0.73-0.78-0.14-1.37-0.39-1.69-0.72h-0.01v1.47s0 0.12 0 0.12v1.14l-0.32 0.02c-4.33 0.28-8.87 1.08-14.32 2.5h-0.06s-0.05-0.01-0.05-0.01c-3.8-2.15-8.23-4.31-13.19-6.41-4.96-2.11-10.04-3.99-15.11-5.61l-0.28-0.1v-5.94l0.24-0.17c3.33-2.3 5.19-4.21 5.85-6.02l0.04-0.12 4.53 0.91v-2.02s0-0.03 0-0.04 0-0.01 0-0.02c0-0.08 0-0.16 0.03-0.22 0.01-0.04 0.05-0.07 0.07-0.11s0.04-0.07 0.07-0.11c0.28-0.4 0.91-0.72 1.79-0.88 1.57-0.28 3.39 0.04 4.05 0.72 0.25 0.25 0.29 0.49 0.27 0.68v2.79c0.74-0.15 1.61-0.26 2.64-0.32h0.11s0.03 0.1 0.03 0.1c0.08 0.25 0.11 0.48 0.1 0.7v0.03 3.99l1.28-0.65v0.02s0 0 0 0v0.24c-0.05 0.96 0.69 1.5 1.9 2.06 0.79-0.73 1-2.33 1-2.35l0.02-0.19 4.26 1.81v-2.01s0-0.03 0-0.05 0-0.01 0-0.02c0-0.08 0-0.16 0.03-0.22 0.09-0.28 0.35-0.52 0.73-0.72s0-0.03 0-0.05v-0.05-0.05-0.05-0.05-0.05-0.05-0.05-0.05-0.05-0.05-0.05-0.05-0.05-0.05-0.05-0.05-0.05-0.05-0.05-0.05-0.05-0.05-0.05-0.05-0.05-0.05-0.05-0.05-0.05-0.05-0.05-0.05-0.05-0.05-0.05-0.05-0.05-0.05-0.05-0.05-0.05-0.05-0.05-0.05-0.05-0.05-0.05-0.05-0.05-0.05-0.05-0.05-0.05-0.05-0.05-0.05-0.05-0.05-0.05-0.05-0.05-0.05-0.05-0.05-0.05-0.05-0.05-0.05-0.05-0.05-0.05-0.05-0.05-0.05-0.05-0.05-0.05-0.05-0.05-0.05-0.05-0.05-0.05-0.05-0.05-0.05-0.05-0.05-0.05-0.05-0.05-0.05-0.05-0.05-0.05-0.05-0.05-0.05-0.05-0.05-0.05-0.05-0.05-0.05-0.05-0.05-0.05-0.06-0.02c0-0.08 0-0.16 0.03-0.22 0.01-0.03 0.04-0.06 0.06-0.09 0.03-0.05 0.06-0.11 0.1-0.16 0.29-0.39 0.91-0.7 1.77-0.85 1.57-0.28 3.39 0.04 4.05 0.72 0.24 0.24 0.29 0.47 0.27 0.65v2.06s0 0.01 0 0.01c0.06-0.03 0.1-0.06 0.16-0.08 0.26-0.11 0.55-0.2 0.9-0.28l1.57-0.34m-27.3 0.91h-0.01s0.01 0 0.01 0zm5.91-2.62c-0.63-0.64-2.4-0.95-3.92-0.68s-2.25 1.01-1.61 1.65c0.64 0.66 2.39 0.96 3.92 0.69 1.52-0.27 2.26-1.02 1.62-1.67zm12.11 7.22c0.64 0.66 2.39 0.96 3.92 0.69 1.52-0.27 2.26-1.02 1.62-1.67-0.63-0.64-2.4-0.95-3.92-0.68s-2.24 1.01-1.61 1.65zm6.3-7.03c-0.63-0.64-2.4-0.95-3.92-0.68s-2.24 1.01-1.61 1.65c0.64 0.65 2.39 0.96 3.92 0.69 1.52-0.27 2.26-1.02 1.62-1.67zm15.13 1.86-3.53-0.78c0.02-0.08 0.03-0.15 0-0.23s4.47-0.99 4.47-0.99l-3.88-1.64-2.31 1.9h-0.01-0.52-0.02l-1.83-1.5-3.95 1.68 4.09 0.54c-0.02 0.08-0.02 0.16 0 0.24l-6.19 1.32s-0.02 0-0.02 0 0 0 0 0c-0.3 0.07-0.59 0.16-0.84 0.26-1.26 0.53-1.37 1.37-0.34 1.96 0.02 0 0.03 0.02 0.05 0.03 0.09 0.05 0.19 0.1 0.29 0.14 0.11 0.05 0.22 0.09 0.34 0.12 0.02 0 0.04 0.01 0.06 0.02 1.39 0.44 3.35 0.39 4.61-0.14 0.26-0.11 0.46-0.23 0.62-0.36s0 0 0.01-0.01l3.11-2.63c0.18 0.01 0.37 0.01 0.55 0h0.01l1.27 1.74 3.95-1.68zm-5.51 5.56c1.51 0.27 3.26-0.04 3.89-0.69 0.64-0.65-0.08-1.4-1.59-1.67-1.54-0.27-3.3 0.04-3.93 0.69s0.09 1.39 1.63 1.67zm6.18 3.16c0.63-0.65-0.08-1.4-1.59-1.67-1.54-0.27-3.3 0.04-3.93 0.69s0.09 1.39 1.63 1.66c1.51 0.27 3.26-0.04 3.89-0.69zm-5.73 4.66c1.51 0.27 3.26-0.04 3.89-0.69 0.64-0.65-0.08-1.4-1.59-1.67-1.54-0.27-3.3 0.04-3.93 0.69s0.09 1.39 1.63 1.66zm-2 1.89v-0.24s0 0.11 0 0.11v-0.16s0 0.11 0 0.11v-0.16s0 0.11 0 0.11v-0.16s0 0.11 0 0.11v-0.16s0 0.11 0 0.11v-0.16s0 0.11 0 0.11v-0.16s0 0.11 0 0.11v-0.16s0 0.11 0 0.11v-0.16s0 0.11 0 0.11v-0.16s0 0.11 0 0.11v-0.77s0 0.21 0 0.21v-0.26s0 0.21 0 0.21v-0.26s0 0.21 0 0.21v-0.26s0 0.21 0 0.21v-0.26s0 0.21 0 0.21v-0.26s0 0.21 0 0.21v-0.26s0 0.21 0 0.21v-0.26s0 0.21 0 0.21v-0.26s0 0.21 0 0.21v-0.26s0 0.21 0 0.21v-0.26s0 0.21 0 0.21v-0.26s0 0.21 0 0.21v-1.39c-0.02-0.18 0.03-0.41 0.27-0.65 0.08-0.08 0.18-0.16 0.3-0.24-0.65-0.27-1.02-0.64-1.02-1.08v-1.41s0 0.21 0 0.21v-0.25s0 0.2 0 0.2v-0.25s0 0.2 0 0.2v-0.25s0 0.21 0 0.21v-0.25s0 0.21 0 0.21v-0.25s0 0.21 0 0.21v-0.25s0 0.21 0 0.21v-0.25s0 0.21 0 0.21v-0.25s0 0.2 0 0.2v-0.25s0 0.2 0 0.2v-0.25s0 0.21 0 0.21v-0.25s0 0.21 0 0.21v-1.03h-0.01s-1.28 1.08-1.28 1.08l-0.04 0.04h-0.01c-0.17 0.13-0.38 0.24-0.62 0.35-1.06 0.45-2.6 0.55-3.92 0.31l-2.12 0.65v0.08c1.22-0.43 2.84-0.62 5.23-0.49h0.19v1.52s0 0.03 0 0.03v3.11c0.32-0.17 0.65-0.35 1.04-0.6l0.09-0.06 1.9 1.7zm-27.61-3.78c5.08 2.16 9.54 4.34 13.2 6.42 6.33-1.65 10.73-2.27 14.34-2.51l-1.85-1.66c-1.17 0.74-1.81 1.05-3.07 1.31-0.01-0.4 0.39-0.95 1.35-1.66l-6.03 1.38c1.43 0.11 2.46 0.23 3.23 0.54-4.18 0.65-6.58 0.26-7.45-0.28-1.07-0.66-0.5-1.41 0.69-1.75 1.71-0.47 3.52-0.01 2.55 0.97 3.92-0.57 2.55-1.84 0.37-2.11 4.31 0 6.48-0.71 7.05-2.43-4.29-0.24-6.15 0.53-7.65 2.09 0.21-1.29-2.87-1.86-4.7-0.41 2.61-0.24 2.96 0.76 1.25 1.31-1.49 0.48-4.28 0.2-6.25-0.8-2.81-1.43-0.86-2.42 0.83-3.2 0.9 0.26 1.56 1.14 1.09 2.33l5.35-1.91c-2.59 0.02-3.99-0.36-5.31-0.89 1.76-0.38 5.89-0.48 5.89-0.48l-3.3-1.4s-2.85-1.21-2.85-1.21-0.22 1.76-1.12 2.5c-1.24-0.56-2.14-1.16-2.09-2.26l-4.49 2.27c2.8-0.2 4.87 0.08 5.49 0.46-1.84 0.72-4.16 1.54-7.53 0.35-2.34-0.84-3.01-2.02-1.88-2.65 1.29-0.73 3.64-0.58 3.08 0.53 3.42-0.78 2.08-2.08-0.96-2 3.68-0.63 5.49-1.43 4.92-3.25-4.06 0.24-5.73 1.16-5.72 3-0.63-0.93-3.63-1.51-4.97 0.16 2.31-0.41 3.38 0.36 2.28 1.09-0.79 0.51-2.56 0.75-4.11 0.29-1.27-0.37-2.19-1.39-0.66-3.17 0.73 0.33 1.01 0.76 1.27 1.37l3.25-2.56c-1.65 0.4-2.96 0.58-3.9 0.57 0.62-0.54 1.34-0.8 3.09-1.3l-3.9-0.79c-0.56 1.53-2.01 3.41-5.9 6.09 4.89 1.56 10.04 3.45 15.12 5.61z"/>
</g>
</svg>
